<?xml version="1.0" standalone="no"?>
<!DOCTYPE svg PUBLIC "-//W3C//DTD SVG 20010904//EN"
 "http://www.w3.org/TR/2001/REC-SVG-20010904/DTD/svg10.dtd">
<svg version="1.0" xmlns="http://www.w3.org/2000/svg"
 width="3444.000000pt" height="3444.000000pt" viewBox="0 0 3444.000000 3444.000000"
 preserveAspectRatio="xMidYMid meet">
<metadata>
Created by potrace 1.11, written by Peter Selinger 2001-2013
</metadata>
<g transform="translate(0.000000,3444.000000) scale(0.100000,-0.100000)"
fill="#000000" stroke="none">
<path d="M5005 27930 c-61 -24 -69 -80 -68 -510 1 -444 -1 -420 24 -420 11 0
19 -7 19 -16 0 -8 5 -12 11 -8 8 4 9 -1 4 -16 -6 -20 -5 -22 18 -16 14 3 28 2
31 -2 3 -5 19 -7 37 -4 19 3 26 7 19 12 -16 10 -6 26 19 33 15 3 18 1 14 -11
-5 -10 -2 -13 6 -8 7 5 10 15 7 23 -4 9 2 22 11 30 13 10 15 16 6 19 -10 4 -9
9 2 21 8 8 13 18 11 22 -3 4 -8 164 -11 357 -7 374 -7 370 -19 427 -14 63 -77
93 -141 67z"/>
<path d="M17070 27889 c-75 -4 -169 -10 -210 -14 -41 -4 -94 -7 -116 -6 -23 1
-70 -3 -105 -8 -35 -6 -100 -13 -144 -16 -44 -4 -91 -8 -105 -10 -14 -2 -90
-11 -170 -20 -130 -14 -426 -56 -615 -86 -38 -7 -158 -29 -265 -51 -107 -22
-211 -41 -230 -44 -19 -2 -46 -9 -60 -14 -14 -5 -46 -12 -73 -15 -26 -3 -57
-10 -70 -14 -12 -5 -67 -19 -122 -31 -55 -12 -129 -31 -165 -41 -36 -10 -92
-25 -125 -32 -33 -8 -82 -23 -110 -35 -27 -11 -63 -23 -80 -27 -96 -20 -408
-126 -630 -215 -38 -15 -101 -40 -140 -55 -99 -39 -142 -57 -287 -124 -37 -17
-71 -31 -76 -31 -5 0 -92 -42 -193 -94 -101 -51 -195 -97 -209 -101 -14 -4
-40 -19 -58 -32 -24 -18 -42 -24 -64 -21 -34 5 -190 -70 -398 -192 -168 -98
-397 -229 -460 -263 -30 -16 -63 -37 -73 -45 -9 -8 -43 -31 -75 -51 -71 -43
-248 -177 -377 -283 -52 -43 -98 -78 -102 -78 -4 0 -26 -17 -48 -38 -36 -33
-77 -68 -187 -162 -17 -14 -53 -47 -81 -74 -29 -27 -77 -70 -107 -96 -30 -25
-73 -63 -95 -84 -22 -20 -121 -101 -219 -179 -99 -78 -206 -169 -239 -202
-119 -122 -263 -282 -398 -445 -104 -125 -117 -142 -238 -300 -36 -47 -69 -89
-73 -95 -31 -37 -319 -456 -338 -492 -8 -15 -25 -42 -38 -60 -12 -17 -22 -34
-22 -37 0 -4 -18 -30 -39 -59 -22 -29 -58 -86 -82 -127 -23 -41 -66 -111 -94
-155 -29 -44 -62 -100 -74 -125 -12 -25 -30 -58 -40 -75 -10 -16 -30 -52 -44
-78 -15 -26 -34 -59 -43 -72 -31 -48 -304 -586 -304 -600 0 -2 -14 -35 -31
-72 -41 -89 -136 -327 -165 -413 -8 -25 -21 -58 -29 -75 -7 -16 -29 -84 -50
-150 -20 -66 -40 -129 -45 -140 -8 -19 -29 -89 -66 -230 -9 -33 -22 -80 -29
-105 -32 -111 -116 -490 -122 -550 -3 -24 -9 -53 -14 -62 -5 -9 -8 -21 -7 -25
2 -9 -7 -67 -28 -172 -8 -40 -16 -97 -18 -125 -2 -28 -6 -58 -10 -66 -3 -8 -7
-37 -10 -65 -2 -27 -11 -108 -20 -180 -19 -166 -53 -580 -62 -755 -3 -74 -8
-139 -11 -143 -6 -11 -5 -774 1 -867 6 -86 18 -383 18 -450 0 -25 4 -65 9 -90
4 -25 13 -128 19 -230 6 -102 13 -206 17 -232 5 -44 4 -48 -16 -48 -12 0 -35
-7 -50 -15 -16 -8 -31 -12 -33 -9 -3 2 -11 -2 -18 -11 -10 -13 -9 -15 9 -15
11 0 21 -5 21 -11 0 -7 -9 -9 -22 -6 -13 4 -32 -2 -49 -14 -31 -21 -44 -25
-33 -7 4 7 3 8 -5 4 -6 -4 -9 -12 -5 -17 10 -16 4 -429 -7 -520 -6 -48 -14
-91 -18 -97 -4 -7 -30 -4 -77 8 -38 9 -106 20 -150 24 -72 6 -84 5 -131 -19
-29 -14 -63 -25 -76 -25 -12 0 -45 -9 -72 -19 -28 -10 -99 -37 -160 -60 -60
-23 -119 -46 -130 -50 -81 -35 -95 -43 -104 -58 -8 -16 -37 -34 -108 -67 -17
-9 -34 -20 -38 -26 -3 -5 -25 -19 -48 -30 -23 -11 -61 -32 -83 -47 -23 -16
-67 -45 -98 -65 -127 -85 -369 -293 -486 -419 -58 -61 -120 -128 -139 -148
-32 -34 -88 -105 -138 -172 -11 -16 -50 -69 -86 -117 -36 -48 -84 -123 -108
-167 -23 -44 -52 -96 -64 -115 -35 -59 -115 -227 -115 -243 0 -9 -5 -19 -10
-22 -6 -3 -10 -13 -10 -21 0 -8 -9 -33 -19 -57 -52 -116 -145 -512 -155 -663
-2 -29 -6 -56 -9 -61 -15 -25 -28 -265 -29 -523 -1 -210 26 -485 62 -645 6
-27 20 -90 31 -140 11 -49 24 -99 28 -110 11 -25 35 -115 61 -228 12 -49 30
-111 41 -139 10 -27 17 -54 13 -59 -3 -5 4 -21 15 -35 12 -15 21 -35 21 -44 0
-10 6 -23 14 -29 7 -6 16 -25 20 -42 3 -17 19 -59 35 -92 16 -34 45 -98 65
-142 20 -44 41 -87 46 -95 6 -8 17 -30 25 -47 41 -89 151 -261 265 -413 30
-41 68 -93 83 -115 15 -22 37 -53 49 -70 13 -16 38 -50 56 -75 76 -103 180
-206 352 -352 112 -94 332 -230 551 -340 138 -70 326 -158 336 -158 3 0 42
-18 87 -39 257 -124 305 -142 436 -165 134 -24 203 -38 225 -46 26 -11 204
-39 280 -45 33 -3 76 -8 96 -10 107 -16 383 -11 559 8 80 9 249 51 356 88 101
35 270 118 315 156 8 7 22 13 30 13 31 0 145 -87 290 -222 85 -78 191 -165
238 -196 179 -114 231 -150 416 -287 105 -78 235 -171 290 -207 121 -79 382
-228 399 -228 7 0 17 -5 22 -10 13 -13 332 -177 419 -215 107 -48 152 -68 175
-80 14 -7 61 -27 105 -45 44 -17 105 -42 135 -56 81 -35 257 -103 320 -124 62
-20 130 -46 177 -66 17 -8 37 -14 44 -14 7 0 44 -11 83 -24 76 -26 219 -69
301 -91 28 -7 95 -25 150 -40 237 -63 372 -95 402 -95 17 0 34 -4 37 -9 3 -5
27 -12 53 -15 60 -8 188 -34 228 -46 17 -5 64 -15 105 -21 41 -6 95 -15 120
-19 25 -4 83 -13 130 -20 47 -6 94 -16 105 -20 11 -5 27 -8 35 -8 8 -1 49 -5
90 -11 41 -5 170 -21 285 -35 116 -15 233 -31 260 -36 48 -9 247 -31 263 -29
46 7 63 -2 83 -48 42 -96 49 -208 26 -393 -16 -122 -111 -316 -170 -347 -17
-8 -37 -22 -45 -29 -7 -8 -23 -19 -34 -25 -11 -6 -29 -19 -41 -29 -12 -10 -56
-44 -97 -75 l-75 -56 -65 6 c-67 5 -68 6 -112 68 -20 28 -86 41 -127 25 -72
-29 -101 -44 -156 -77 -33 -19 -74 -46 -91 -58 -17 -13 -34 -23 -37 -23 -4 0
-36 -20 -71 -45 -36 -25 -68 -45 -71 -45 -6 0 -54 -32 -310 -209 -44 -30 -116
-79 -160 -109 -116 -78 -189 -155 -209 -220 -12 -36 -40 -50 -236 -117 -107
-37 -233 -80 -280 -96 -46 -16 -89 -34 -94 -39 -6 -6 -18 -10 -28 -10 -10 0
-26 -4 -36 -10 -9 -5 -44 -19 -77 -29 -33 -11 -98 -34 -145 -51 -47 -18 -148
-54 -225 -81 -77 -26 -192 -67 -255 -90 -63 -23 -155 -55 -205 -71 -49 -16
-99 -34 -110 -39 -11 -5 -51 -20 -90 -33 -38 -14 -119 -42 -180 -64 -60 -21
-159 -56 -220 -77 -60 -20 -137 -47 -170 -60 -33 -12 -114 -39 -180 -60 -66
-20 -131 -41 -145 -47 -14 -6 -56 -19 -95 -30 -95 -27 -146 -43 -235 -72 -77
-26 -203 -64 -370 -111 -146 -41 -223 -65 -245 -75 -50 -23 -146 -43 -225 -46
-153 -7 -244 -13 -298 -19 -29 -4 -98 -8 -155 -11 -170 -6 -361 -30 -401 -49
-41 -20 -116 -106 -116 -134 0 -9 -5 -22 -11 -28 -7 -7 -12 -68 -13 -160 -2
-168 -10 -190 -82 -247 -41 -33 -67 -83 -88 -176 -8 -36 -21 -90 -29 -120 -8
-30 -28 -104 -45 -165 -16 -60 -44 -162 -62 -225 -44 -159 -72 -261 -135 -505
-29 -115 -61 -236 -69 -267 -39 -144 -48 -178 -66 -253 -11 -44 -26 -105 -34
-135 -8 -30 -21 -80 -29 -110 -8 -30 -26 -92 -40 -137 -13 -45 -22 -85 -19
-87 3 -3 0 -11 -5 -18 -6 -7 -13 -26 -16 -43 -3 -16 -13 -57 -22 -90 -9 -33
-25 -96 -35 -140 -10 -44 -25 -100 -33 -125 -8 -25 -29 -99 -46 -165 -18 -66
-41 -149 -53 -185 -11 -36 -28 -99 -39 -140 -11 -41 -28 -104 -39 -140 -21
-69 -125 -431 -141 -490 -6 -19 -14 -44 -19 -55 -5 -11 -12 -30 -15 -42 l-6
-23 6835 0 6835 0 11 43 c7 23 18 62 25 87 8 25 32 110 55 190 23 80 54 188
70 240 27 87 70 237 83 285 3 11 19 65 35 120 17 55 46 154 65 220 59 197 131
407 168 490 10 22 20 48 23 58 4 12 16 17 39 17 l34 0 -35 -72 c-59 -122 -91
-206 -139 -363 -8 -27 -37 -117 -64 -200 -26 -82 -64 -208 -84 -280 -19 -71
-39 -143 -44 -160 -5 -16 -21 -70 -35 -120 -14 -49 -36 -124 -48 -165 -12 -41
-23 -77 -23 -80 -2 -9 -26 -85 -35 -105 -4 -11 -18 -54 -31 -95 -12 -41 -27
-81 -32 -88 -6 -7 -8 -15 -5 -17 3 -3 1674 -4 3715 -3 l3710 3 -59 135 c-33
74 -67 155 -78 180 -10 25 -34 79 -53 120 -19 41 -38 86 -42 100 -4 14 -23 54
-41 90 -19 35 -34 68 -34 72 0 5 -20 51 -45 102 -25 52 -45 98 -45 103 0 4
-16 40 -36 78 -43 86 -104 225 -104 238 0 6 -6 18 -14 26 -8 9 -26 45 -41 81
-15 36 -37 88 -50 115 -13 28 -43 93 -68 145 -68 146 -76 164 -86 180 -10 15
-71 144 -90 190 -6 14 -15 32 -20 40 -10 16 -74 153 -110 235 -13 28 -27 59
-33 69 -11 21 -65 128 -217 436 -56 113 -125 250 -154 305 -29 55 -63 120 -76
145 -13 25 -27 52 -32 60 -5 8 -19 35 -31 60 -12 25 -50 93 -85 152 -35 59
-63 109 -63 112 0 2 -25 41 -55 86 -57 85 -65 101 -40 80 8 -7 15 -11 16 -9 0
2 2 24 5 49 2 25 11 72 19 105 27 110 33 176 23 254 -13 91 -26 124 -78 189
-62 80 -82 87 -240 86 -147 0 -414 -11 -497 -20 -45 -5 -62 -1 -117 25 -35 17
-70 31 -77 31 -15 0 -368 115 -414 135 -16 7 -64 23 -105 35 -41 12 -97 30
-125 40 -27 9 -77 25 -110 35 -33 9 -85 26 -115 37 -30 11 -71 23 -90 28 -19
4 -62 17 -95 29 -33 12 -115 37 -183 56 -67 19 -130 39 -140 44 -9 5 -39 12
-67 16 -27 5 -64 14 -82 21 -30 13 -260 65 -344 79 -30 4 -40 12 -54 43 -64
135 -235 317 -347 368 -18 8 -51 25 -73 37 -52 29 -173 67 -213 67 -17 0 -33
3 -36 8 -7 12 -171 14 -238 2 -60 -11 -63 -11 -80 12 -10 12 -26 33 -35 46
-21 27 -125 129 -168 165 -44 36 -160 105 -208 124 -23 9 -47 20 -53 25 -6 4
-31 12 -55 17 -24 5 -80 17 -124 27 -70 15 -93 15 -195 5 -120 -13 -222 -36
-312 -72 -56 -22 -229 -120 -263 -149 -22 -19 -16 -21 -106 37 -19 13 -41 23
-49 23 -8 0 -29 13 -45 29 -17 15 -49 40 -71 54 -42 26 -269 133 -314 147
-114 38 -431 192 -635 310 -22 13 -87 50 -144 82 -58 32 -111 63 -117 69 -43
36 -181 43 -253 13 -28 -12 -41 -12 -63 -3 -15 6 -28 15 -28 19 0 4 -15 13
-32 21 -18 7 -35 15 -38 18 -3 4 -26 16 -52 29 -26 13 -50 28 -54 33 -3 6 -16
14 -28 19 -53 20 -388 270 -402 300 -14 28 -16 314 -4 455 12 149 23 205 51
271 l17 41 108 7 c60 3 123 8 140 11 17 2 60 7 95 10 97 10 468 71 499 82 8 4
20 7 25 7 24 3 108 19 200 38 55 11 120 24 145 28 25 5 56 13 70 18 25 11 171
45 245 58 22 3 45 10 50 15 6 4 35 12 65 18 30 5 107 25 170 45 63 19 167 50
230 69 165 50 505 165 570 193 63 27 74 32 145 57 39 14 97 37 130 52 33 15
74 33 90 40 17 7 71 32 120 55 50 23 106 49 125 57 19 8 46 21 60 28 14 8 45
23 70 35 25 11 52 25 60 30 8 6 22 13 30 16 8 3 23 10 33 15 10 6 46 24 80 41
34 17 64 34 67 38 3 4 34 22 70 40 83 41 126 65 142 77 7 6 42 26 78 46 81 44
282 163 295 174 30 27 209 125 260 144 33 12 96 48 140 79 44 31 98 68 120 82
22 14 78 60 125 103 47 42 97 84 111 93 14 10 63 51 108 92 46 41 92 79 104
83 20 8 21 9 5 21 -52 38 52 32 223 -12 141 -37 224 -45 414 -38 211 8 368 17
376 22 3 2 100 15 215 29 344 43 456 67 597 129 32 14 66 26 75 26 10 0 22 4
28 9 5 5 32 15 59 24 78 23 207 72 294 111 43 20 82 36 85 36 16 0 511 242
578 283 20 12 63 38 95 56 32 19 86 54 120 78 34 24 66 43 72 43 5 0 16 7 24
15 8 8 55 43 105 78 149 105 312 251 475 424 37 40 67 75 67 78 0 4 6 12 13
19 6 7 30 34 52 61 22 26 45 53 50 59 6 7 15 19 20 28 16 25 106 161 125 188
9 14 32 52 50 85 19 33 44 78 57 100 12 22 25 47 29 55 7 17 48 107 93 203 44
91 147 376 162 447 4 19 15 61 24 93 9 32 25 106 36 165 11 59 27 141 35 182
14 73 24 145 25 185 1 11 5 45 11 75 37 222 39 778 3 1035 -3 17 -7 50 -9 75
-2 25 -7 52 -9 60 -3 8 -12 60 -21 115 -14 94 -31 174 -54 255 -6 19 -18 67
-27 105 -9 39 -21 78 -26 87 -4 9 -18 45 -29 80 -12 35 -32 86 -45 113 -12 28
-28 66 -35 85 -8 19 -18 41 -23 48 -6 7 -27 45 -47 85 -53 103 -100 190 -113
206 -6 7 -16 21 -22 31 -22 37 -75 116 -90 135 -9 11 -34 44 -56 74 -95 130
-242 289 -383 416 -119 107 -120 109 -151 130 -16 11 -47 36 -69 55 -23 19
-48 40 -57 45 -39 24 -76 51 -107 77 -18 15 -38 28 -45 28 -7 0 -28 11 -48 24
-19 13 -79 47 -134 75 -54 29 -111 64 -126 79 -63 62 -178 134 -237 147 -30 6
-42 27 -23 39 4 3 13 25 19 48 27 105 45 174 47 188 1 8 5 22 8 30 13 36 67
307 81 410 4 25 9 59 11 75 8 56 26 230 31 290 2 33 6 85 8 115 9 107 17 377
18 570 1 195 -9 581 -17 619 -2 11 -6 77 -10 148 -3 70 -8 135 -10 143 -4 15
-26 233 -31 305 -2 44 -24 199 -55 405 -56 369 -150 806 -237 1110 -62 214
-83 286 -97 325 -7 22 -21 67 -30 100 -10 33 -28 87 -40 120 -13 33 -47 123
-75 200 -63 169 -276 582 -570 1105 -303 539 -804 1287 -1045 1559 -119 134
-383 397 -491 490 -21 18 -66 58 -99 88 -82 75 -90 82 -170 148 -38 32 -72 61
-75 64 -3 4 -29 24 -57 46 -29 21 -53 43 -53 47 0 4 -7 8 -15 8 -8 0 -15 4
-15 8 0 5 -41 37 -91 73 -50 35 -106 76 -123 91 -39 32 -185 138 -192 138 -2
0 -38 25 -79 55 -40 30 -79 55 -84 55 -6 0 -11 4 -11 10 0 5 -22 21 -49 34
-26 14 -61 36 -77 49 -27 22 -72 50 -168 106 -22 13 -63 38 -91 56 -27 18 -72
45 -100 60 -27 15 -73 43 -101 61 -28 19 -54 34 -57 34 -3 0 -27 14 -52 31
-25 17 -67 43 -93 56 -26 14 -76 41 -112 61 -187 100 -358 189 -475 246 -44
21 -100 49 -125 62 -25 13 -50 24 -57 24 -6 0 -33 11 -60 24 -26 13 -79 38
-118 55 -38 18 -78 36 -87 41 -37 21 -56 28 -138 60 -47 18 -98 38 -115 45
-40 17 -185 75 -210 85 -82 31 -113 43 -130 51 -26 11 -142 52 -275 96 -58 19
-114 38 -125 43 -33 14 -145 50 -220 71 -38 10 -79 23 -90 29 -11 5 -45 16
-75 24 -30 8 -86 23 -125 34 -38 11 -104 27 -145 36 -41 10 -106 27 -145 38
-61 18 -240 60 -315 74 -14 2 -54 11 -90 18 -210 46 -486 93 -583 101 -32 3
-62 7 -65 9 -4 2 -47 7 -97 11 -49 3 -91 8 -95 10 -3 1 -48 6 -100 10 -52 3
-115 9 -140 11 -145 15 -936 24 -1150 13z m1372 -1506 c-25 -9 0 -23 41 -23
23 0 37 -4 31 -8 -6 -4 -13 -15 -17 -25 -4 -10 -11 -15 -17 -12 -5 3 -10 2
-10 -2 0 -5 16 -15 35 -22 26 -9 40 -9 55 -1 12 6 26 10 31 8 6 -2 -27 -19
-73 -37 -321 -129 -578 -259 -578 -292 0 -26 32 -25 117 5 61 22 111 35 248
66 119 26 301 50 465 59 192 11 603 22 538 14 -37 -4 -37 -5 -19 -24 20 -22
71 -25 253 -15 56 3 97 3 91 0 -7 -3 -13 -12 -13 -19 0 -9 20 -16 63 -20 51
-6 65 -11 73 -28 6 -15 23 -25 49 -30 22 -5 54 -13 70 -17 l30 -9 -30 5 c-83
13 -407 32 -492 29 -134 -5 -364 -31 -443 -50 -36 -8 -102 -23 -147 -33 -45
-9 -81 -21 -80 -27 1 -5 9 -9 17 -8 8 1 58 9 110 17 194 31 313 38 520 31 113
-3 241 -10 285 -16 126 -15 275 -43 275 -51 0 -5 15 -8 33 -8 44 0 149 -21
161 -31 6 -5 24 -9 40 -10 36 0 159 -27 133 -28 -11 -1 -17 -7 -14 -13 2 -7 9
-12 15 -11 6 2 9 -4 6 -12 -4 -8 -1 -15 6 -15 7 0 10 -7 6 -16 -4 -11 1 -18
14 -21 11 -3 20 -12 20 -19 0 -8 8 -14 18 -14 9 0 22 -10 27 -22 6 -13 16 -24
23 -24 6 -1 21 -2 32 -3 11 0 20 -8 20 -17 0 -11 6 -14 21 -9 12 4 56 9 98 11
42 1 101 9 131 18 53 14 56 14 105 -10 46 -23 51 -29 53 -60 2 -20 12 -45 22
-57 11 -11 20 -17 20 -13 0 5 6 3 14 -3 8 -7 49 -13 93 -15 98 -5 102 -6 137
-39 16 -15 33 -27 37 -27 5 0 9 -4 9 -9 0 -5 -21 -2 -47 6 -145 46 -375 107
-448 118 -22 3 -92 16 -155 30 -305 64 -704 105 -1010 104 -171 -1 -151 -13
35 -22 186 -10 615 -67 762 -102 32 -7 121 -28 198 -45 77 -18 196 -48 265
-67 131 -37 581 -182 590 -190 3 -3 -8 -3 -24 -1 -18 2 -31 -2 -34 -11 -3 -9
1 -11 17 -6 17 5 21 2 21 -14 0 -15 10 -23 40 -31 41 -11 47 -19 29 -37 -11
-11 70 -39 201 -68 41 -9 129 -33 195 -52 66 -19 176 -51 245 -70 129 -36 213
-74 265 -118 l30 -25 -54 16 c-30 9 -91 29 -135 44 -205 72 -443 134 -679 175
-184 33 -595 55 -642 34 -27 -11 -15 -14 135 -24 307 -22 555 -66 830 -147
198 -58 607 -208 568 -208 -4 0 -67 9 -140 20 -218 32 -881 92 -1042 94 -46 1
-61 -3 -70 -17 -17 -27 2 -33 117 -40 56 -4 118 -11 137 -17 19 -5 51 -11 70
-14 96 -12 479 -124 505 -147 5 -5 -6 -9 -25 -10 -25 0 -7 -8 65 -28 111 -31
218 -80 211 -96 -6 -18 27 -33 94 -44 62 -10 170 -58 258 -114 182 -116 612
-410 606 -416 -6 -7 -250 51 -339 81 -98 33 -231 84 -319 123 -64 28 -89 31
-105 11 -16 -19 12 -48 69 -72 25 -10 94 -48 153 -84 59 -36 117 -70 128 -76
38 -21 219 -167 333 -268 125 -112 383 -370 496 -497 41 -46 108 -119 149
-161 82 -86 87 -103 10 -34 -127 114 -386 287 -429 286 -17 -1 -10 -7 135
-115 103 -76 322 -278 422 -388 105 -115 128 -142 183 -207 30 -36 57 -67 60
-70 3 -3 28 -34 55 -69 28 -35 63 -79 78 -97 16 -18 59 -75 97 -126 38 -51 78
-105 90 -120 29 -37 16 -35 -34 5 -125 100 -136 86 -25 -30 139 -147 201 -230
260 -348 35 -69 65 -116 85 -132 24 -18 30 -29 26 -45 -3 -14 -1 -19 6 -14 8
5 12 0 12 -13 0 -12 7 -21 15 -21 9 0 18 -8 22 -17 4 -10 20 -37 36 -61 l29
-43 -41 21 c-23 11 -41 16 -41 10 0 -5 22 -34 50 -64 27 -31 56 -68 64 -83 7
-15 23 -37 35 -47 12 -11 21 -23 21 -28 0 -5 19 -40 43 -76 64 -101 107 -188
110 -221 1 -16 6 -29 12 -28 5 1 12 -16 15 -37 3 -22 11 -41 19 -44 9 -3 11 0
6 9 -6 11 -5 12 6 1 11 -10 11 -15 -3 -28 -15 -15 -14 -20 10 -66 14 -28 34
-55 43 -61 9 -6 15 -16 12 -24 -6 -15 18 -73 31 -73 4 0 6 -6 3 -14 -3 -8 1
-20 9 -27 9 -8 11 -16 5 -22 -5 -5 -2 -16 10 -28 10 -10 19 -29 19 -41 0 -13
7 -36 16 -53 8 -16 13 -37 11 -47 -3 -10 -1 -18 4 -18 5 0 9 -9 9 -20 0 -11 9
-43 20 -71 10 -29 22 -73 26 -98 4 -25 11 -51 16 -57 5 -7 15 -43 23 -82 8
-38 17 -78 20 -88 6 -21 -12 15 -31 61 -6 17 -28 80 -48 140 -20 61 -48 137
-61 170 -13 33 -38 98 -56 145 -18 47 -50 123 -72 170 -22 47 -53 114 -69 150
-61 133 -182 329 -195 316 -3 -2 23 -60 56 -129 34 -68 61 -126 61 -130 0 -3
13 -34 29 -69 15 -35 41 -97 56 -138 14 -41 35 -95 45 -120 10 -25 23 -61 28
-80 6 -19 29 -89 51 -154 23 -66 40 -121 38 -123 -2 -1 -19 17 -37 42 -19 25
-40 45 -47 45 -15 0 -15 -1 28 -65 14 -22 39 -65 56 -95 16 -30 35 -64 41 -75
17 -29 93 -267 87 -273 -2 -3 -7 4 -11 14 -61 176 -266 585 -305 610 -15 9
-11 -1 56 -135 36 -72 65 -134 65 -138 0 -8 107 -279 119 -303 8 -15 110 -330
161 -500 16 -52 45 -146 65 -208 20 -63 34 -119 32 -125 -2 -6 -18 34 -36 88
-38 117 -169 391 -200 419 l-21 19 14 -40 c8 -22 22 -55 31 -73 9 -17 25 -57
35 -88 10 -31 37 -109 60 -172 23 -63 45 -128 50 -145 12 -45 117 -407 150
-515 58 -188 91 -344 110 -513 11 -95 20 -174 20 -176 0 -2 -7 2 -15 9 -8 7
-15 16 -15 21 0 4 -25 50 -56 101 -31 51 -69 116 -84 143 -25 45 -31 50 -63
50 -19 0 -44 8 -54 18 -23 20 -47 23 -40 3 13 -34 40 -177 34 -182 -3 -4 -25
10 -48 30 -27 23 -53 36 -71 36 -15 0 -28 5 -28 11 0 16 -29 41 -39 34 -5 -3
-13 -1 -16 5 -8 13 -43 3 -64 -18 -13 -13 -12 -17 7 -33 20 -16 21 -21 10 -38
-7 -12 -17 -21 -22 -21 -4 0 -3 -7 4 -15 15 -18 4 -20 -13 -2 -7 6 -12 21 -12
32 0 11 -5 19 -12 18 -15 -3 -69 46 -65 59 1 5 -2 6 -8 3 -6 -4 -17 1 -25 11
-7 11 -17 16 -20 12 -4 -4 -25 2 -47 13 l-40 20 -16 -22 -16 -23 -17 40 c-15
33 -18 35 -18 14 l-1 -24 -16 23 c-12 17 -14 25 -5 30 7 4 -18 7 -55 7 -46 -1
-69 3 -71 12 -6 16 -40 16 -46 0 -5 -14 -21 2 -61 62 -29 43 -72 90 -83 90 -4
-1 -33 -37 -63 -81 -30 -44 -63 -85 -72 -90 -10 -5 -18 -18 -18 -27 0 -10 -5
-23 -12 -30 -20 -20 -17 -55 8 -100 13 -23 24 -49 24 -57 0 -8 5 -15 11 -15 6
0 9 -6 6 -14 -3 -8 -2 -16 3 -18 5 -2 4 -22 -3 -45 -10 -39 -9 -46 12 -74 22
-29 22 -31 6 -66 -16 -33 -16 -36 3 -56 23 -26 38 -92 22 -102 -5 -3 -10 -11
-10 -16 0 -6 5 -7 10 -4 6 4 10 -5 10 -22 -1 -15 1 -48 4 -73 2 -25 8 -88 11
-140 6 -92 11 -140 15 -150 1 -3 3 -9 5 -15 1 -5 3 -14 5 -20 6 -23 5 -41 -3
-52 -6 -8 -4 -15 6 -19 20 -7 33 -90 16 -110 -9 -11 -8 -18 6 -34 9 -10 14
-24 10 -29 -3 -6 -3 -17 1 -23 16 -26 23 -276 8 -286 -15 -10 -25 -42 -13 -42
15 0 39 -26 39 -42 -1 -8 -6 -6 -15 6 -8 11 -17 17 -20 14 -8 -7 5 -38 16 -38
5 0 9 -7 9 -15 0 -8 -4 -15 -9 -15 -5 0 -12 -7 -15 -16 -5 -14 -4 -15 9 -4 22
19 29 6 11 -22 -10 -16 -12 -28 -6 -38 15 -23 12 -33 -7 -25 -14 5 -15 4 -6
-6 8 -8 9 -18 2 -31 -5 -10 -7 -19 -4 -19 3 -1 9 -2 14 -3 15 -2 25 -16 12
-16 -8 0 -10 -7 -6 -22 6 -16 4 -20 -9 -15 -24 9 -29 -10 -6 -23 20 -11 28
-50 10 -50 -6 0 -3 -14 6 -31 8 -17 11 -28 5 -25 -5 4 -15 -2 -20 -13 -15 -28
-14 -44 4 -38 8 4 17 2 20 -3 4 -6 -3 -10 -14 -10 -28 0 -35 -17 -10 -23 22
-6 23 -43 1 -69 -9 -12 -9 -19 3 -34 18 -24 19 -48 2 -41 -20 7 -38 -40 -21
-54 20 -16 17 -26 -7 -32 -19 -5 -20 -11 -16 -81 3 -43 1 -76 -4 -78 -5 -2
-12 -30 -14 -63 -2 -33 -7 -87 -11 -120 -4 -33 -7 -77 -7 -97 -1 -21 -4 -38
-8 -38 -3 0 -6 -13 -5 -30 1 -21 6 -30 19 -30 9 0 17 -5 17 -11 0 -6 -6 -9
-14 -6 -23 9 -36 -17 -33 -62 2 -26 -2 -46 -10 -52 -7 -6 -10 -15 -8 -20 8
-12 -31 -261 -56 -364 -6 -22 -11 -60 -12 -85 -2 -34 -7 -47 -22 -53 -14 -6
-16 -10 -7 -16 9 -5 10 -14 3 -32 -5 -13 -10 -17 -11 -9 0 8 -4 21 -9 29 -11
17 -91 24 -109 9 -12 -10 -45 -18 -141 -33 -18 -3 -42 -10 -52 -16 -10 -5 -19
-8 -19 -5 0 3 -15 0 -32 -5 -29 -9 -167 -36 -223 -44 -11 -2 -20 -4 -20 -5 0
-1 -9 -3 -20 -4 -60 -9 -139 -27 -149 -35 -6 -5 -54 -11 -106 -14 -118 -7
-170 -16 -170 -30 0 -8 -4 -7 -11 0 -8 8 -24 7 -60 -3 -27 -8 -53 -12 -58 -9
-5 3 -54 0 -108 -5 -196 -21 -399 -40 -463 -44 -36 -3 -94 -7 -130 -11 -36 -3
-129 -8 -207 -10 -78 -2 -151 -9 -162 -15 -11 -5 -29 -30 -40 -55 -11 -25 -25
-45 -31 -45 -6 0 -10 -6 -8 -12 2 -7 -13 -37 -32 -67 -19 -30 -34 -60 -32 -67
1 -7 -2 -15 -8 -19 -22 -14 -8 -22 24 -15 19 4 45 5 59 3 22 -4 25 -12 35 -91
11 -81 19 -127 22 -127 1 0 3 -16 6 -35 11 -89 42 -258 55 -300 12 -38 29 -62
29 -42 0 7 5 12 10 12 14 0 13 -27 -2 -32 -6 -2 5 -14 26 -27 41 -26 55 -21
79 29 42 83 -39 406 -138 557 -19 29 -35 55 -35 57 0 10 139 20 338 25 18 1
31 5 28 10 -5 8 92 6 99 -1 2 -2 8 -61 14 -133 25 -284 41 -395 64 -421 25
-29 87 -33 108 -7 12 15 12 16 -3 10 -25 -9 -23 15 3 31 16 10 24 10 35 1 8
-6 14 -8 15 -3 7 56 6 88 -7 139 -8 33 -16 74 -19 90 -4 30 -40 165 -69 258
-8 26 -13 47 -13 48 5 3 113 10 181 12 91 2 82 12 122 -123 15 -52 31 -99 36
-104 4 -6 8 -18 8 -28 0 -22 48 -120 64 -130 41 -28 115 24 117 82 3 59 -8
102 -62 237 -18 46 -30 86 -26 89 3 3 43 10 89 16 46 5 88 14 94 19 6 5 25 6
42 3 29 -6 203 16 287 37 39 9 169 34 230 44 62 9 81 13 129 24 27 7 54 15 60
18 6 4 17 8 26 9 85 11 117 18 193 41 82 25 87 28 87 54 0 32 19 79 32 79 4 0
8 -4 8 -10 0 -5 9 -10 20 -10 13 0 18 5 13 15 -3 9 2 22 13 30 15 11 16 14 4
15 -13 0 -13 1 0 10 24 15 30 12 31 -17 0 -26 1 -26 10 -8 13 27 46 48 54 35
3 -6 -1 -10 -9 -10 -9 0 -16 -4 -16 -10 0 -18 28 -10 59 16 43 36 53 57 42 87
-6 15 -6 28 -1 33 14 14 54 217 66 334 13 120 17 146 26 157 5 6 5 14 0 17 -5
3 -5 30 1 63 6 32 11 83 12 114 1 30 4 59 7 65 4 5 11 47 17 94 6 47 16 114
21 150 18 127 30 242 33 325 1 33 6 66 11 74 5 8 4 16 -4 21 -11 7 -10 15 3
43 21 43 21 52 1 72 -11 11 -13 19 -6 28 5 7 8 26 7 42 -11 97 -29 294 -28
318 0 15 -4 27 -8 27 -5 0 -4 11 1 25 6 16 6 34 0 50 -7 18 -6 25 3 25 7 0 4
7 -7 15 -17 13 -17 15 -2 30 21 21 20 32 -3 40 -13 4 -17 12 -13 27 3 14 1 19
-6 14 -18 -11 -15 16 4 43 14 19 14 25 3 32 -10 6 -10 9 -2 9 7 0 10 7 7 15
-4 8 -10 12 -15 9 -15 -9 -10 13 6 26 16 14 20 40 6 40 -5 0 -12 11 -15 25 -4
14 -11 23 -16 20 -18 -11 -11 22 10 48 11 14 20 30 20 35 0 16 50 21 64 6 7
-7 23 -10 35 -7 17 4 20 2 15 -11 -5 -14 -3 -15 27 -2 23 10 41 11 58 4 26 -9
71 6 71 24 0 4 5 8 11 8 6 0 9 -8 7 -17 -4 -13 2 -18 19 -19 12 -1 23 2 23 7
0 6 9 5 21 -1 24 -13 38 -5 21 12 -7 7 -12 19 -11 28 0 10 2 11 6 3 2 -7 11
-13 19 -13 8 0 17 -7 20 -15 7 -17 34 -21 34 -5 0 6 -4 10 -10 10 -5 0 -10 5
-10 11 0 8 5 8 15 -1 8 -7 22 -10 30 -6 8 3 15 1 15 -5 0 -6 7 -6 19 1 11 5
35 10 54 10 30 0 45 -11 126 -96 l91 -95 0 -180 c0 -109 -4 -188 -11 -200 -11
-21 -15 -68 -24 -289 -3 -74 -7 -169 -9 -210 -3 -41 -7 -131 -10 -200 -3 -69
-9 -154 -12 -190 -4 -36 -8 -97 -9 -136 -1 -39 -5 -102 -9 -140 -3 -38 -8
-109 -11 -159 -3 -49 -11 -133 -17 -185 -6 -52 -12 -117 -15 -145 -2 -27 -6
-68 -9 -90 -2 -22 -14 -121 -25 -220 -11 -99 -27 -220 -34 -270 -8 -49 -19
-132 -25 -184 -6 -51 -15 -113 -20 -137 -6 -25 -17 -95 -25 -157 -8 -61 -19
-132 -24 -157 -5 -25 -26 -135 -46 -245 -30 -164 -64 -335 -90 -451 -2 -10
-13 -64 -25 -119 -11 -55 -27 -122 -35 -150 -8 -27 -26 -99 -41 -160 -36 -153
-84 -324 -100 -362 -8 -17 -14 -38 -14 -46 0 -8 -11 -48 -24 -88 -13 -41 -33
-105 -45 -143 -12 -38 -31 -87 -41 -110 -10 -22 -25 -63 -33 -91 -8 -27 -21
-63 -28 -80 -7 -16 -13 -32 -13 -35 -1 -3 -5 -10 -9 -17 -4 -7 -14 -29 -21
-50 -16 -44 -62 -146 -112 -249 -19 -38 -34 -73 -34 -77 0 -4 -11 -24 -23 -45
-13 -20 -45 -77 -71 -127 -27 -49 -55 -99 -65 -110 -9 -11 -22 -30 -28 -42 -7
-13 -19 -33 -25 -45 -7 -13 -19 -27 -25 -31 -7 -4 -13 -14 -13 -21 0 -7 -9
-21 -20 -31 -11 -10 -20 -24 -20 -30 0 -7 -17 -32 -37 -56 -21 -24 -54 -64
-73 -89 -19 -25 -46 -58 -61 -75 -16 -16 -40 -43 -55 -60 -158 -176 -471 -454
-656 -583 -18 -13 -71 -51 -118 -85 -109 -79 -141 -101 -160 -110 -8 -4 -34
-20 -57 -35 -23 -15 -75 -47 -115 -71 -40 -24 -89 -54 -108 -66 -19 -13 -55
-34 -80 -48 -148 -84 -230 -130 -360 -199 -30 -17 -66 -36 -80 -44 -51 -27
-399 -194 -406 -194 -4 0 -39 -15 -78 -34 -103 -49 -187 -86 -198 -86 -5 0
-28 -9 -51 -19 -57 -26 -163 -66 -212 -81 -22 -7 -44 -16 -50 -20 -9 -7 -113
-42 -380 -130 -49 -16 -157 -47 -240 -69 -82 -21 -194 -50 -247 -65 -108 -28
-225 -54 -518 -116 -107 -22 -220 -47 -250 -55 -30 -8 -77 -16 -105 -20 -74
-8 -135 -22 -395 -86 -377 -93 -574 -127 -1005 -174 -345 -37 -398 -45 -433
-62 -51 -25 -50 -54 3 -72 94 -32 608 -12 908 36 42 6 42 5 23 -42 -32 -76
-59 -320 -59 -528 0 -134 4 -202 12 -210 6 -6 11 -21 11 -33 0 -12 9 -43 21
-68 23 -53 27 -45 -48 -103 -49 -38 -126 -102 -189 -156 -34 -28 -108 -90
-165 -136 -101 -83 -103 -84 -117 -63 -8 12 -23 22 -33 22 -10 0 -21 4 -24 10
-10 16 -63 12 -93 -7 -68 -43 -92 -90 -97 -188 -4 -72 -18 -97 -72 -126 -14
-8 -38 -25 -53 -39 -15 -14 -79 -65 -141 -112 -163 -124 -318 -246 -379 -298
-68 -59 -203 -176 -259 -226 -67 -59 -225 -220 -278 -282 -123 -142 -117 -139
-165 -75 -15 20 -51 61 -80 93 -63 67 -101 113 -202 240 -41 52 -86 109 -100
125 -22 27 -70 88 -133 171 -60 79 -85 111 -105 138 -47 61 -199 252 -231 290
-17 22 -39 49 -47 62 -37 54 -273 327 -377 434 l-63 65 14 46 c8 26 24 66 36
89 63 124 94 335 74 515 -6 54 -39 162 -56 183 -8 9 13 12 99 12 76 0 152 8
244 25 74 14 201 32 283 41 82 8 156 19 165 24 14 8 14 9 -2 10 -63 1 -229 25
-322 47 -209 49 -231 53 -360 62 -106 7 -155 17 -266 50 -124 37 -149 41 -280
46 -158 6 -264 13 -321 20 -84 11 -116 15 -173 20 -116 12 -301 41 -505 81
-47 9 -110 20 -140 25 -91 14 -279 53 -515 109 -49 11 -117 27 -150 35 -72 17
-315 85 -405 113 -173 55 -413 137 -475 163 -116 47 -161 65 -230 91 -44 16
-84 33 -89 39 -6 5 -15 9 -22 9 -7 0 -55 20 -107 45 -53 25 -98 45 -102 45 -5
0 -145 65 -225 104 -38 19 -367 189 -431 223 -81 44 -152 85 -169 98 -8 7 -41
26 -73 43 -31 17 -83 49 -115 71 -31 21 -90 61 -131 88 -41 26 -84 55 -96 63
-12 8 -35 24 -51 35 -16 10 -67 49 -113 85 -46 36 -110 85 -141 110 -115 90
-331 282 -362 324 -45 58 -114 140 -165 195 -24 25 -43 51 -43 57 0 7 -6 17
-13 21 -7 4 -20 19 -29 33 -10 14 -31 44 -48 68 -16 23 -30 46 -30 51 0 4 -11
17 -25 29 -14 12 -25 26 -25 31 0 6 -13 30 -30 54 -16 25 -30 48 -30 51 0 4
-11 23 -23 44 -13 20 -35 58 -49 83 -14 25 -31 54 -37 65 -14 25 -180 373
-190 399 -5 11 -14 38 -21 60 -7 22 -25 67 -40 100 -15 33 -49 123 -74 200
-26 77 -51 148 -56 157 -6 10 -10 25 -10 33 0 8 -4 23 -9 33 -11 19 -51 148
-94 302 -9 30 -27 93 -41 140 -32 109 -55 205 -60 253 -3 21 -11 48 -19 60 -8
12 -17 40 -20 62 -7 47 -6 40 -50 220 -19 77 -41 174 -50 215 -8 41 -25 118
-36 170 -21 101 -62 311 -67 345 -2 11 -15 88 -29 170 -14 83 -30 179 -36 215
-5 36 -11 76 -13 90 -2 14 -11 72 -20 130 -9 58 -20 134 -26 170 -11 69 -13
86 -35 278 -7 68 -16 136 -19 150 -3 15 -8 52 -10 82 -3 31 -30 169 -61 308
-57 260 -80 389 -90 502 -8 97 -15 162 -20 190 -2 14 -7 75 -10 135 -5 98 -14
224 -20 295 -1 14 -3 32 -4 41 -1 18 -38 32 -47 18 -9 -16 -47 -11 -41 5 4 10
1 13 -9 9 -20 -7 -18 19 4 48 11 13 24 39 30 58 7 18 30 63 53 99 23 36 52 87
64 113 12 27 27 54 32 61 6 7 20 29 31 48 68 120 94 165 110 188 27 40 43 82
32 82 -20 0 -9 19 12 22 14 2 29 18 42 45 12 23 28 50 36 60 22 27 50 79 50
94 0 7 10 23 23 37 21 22 21 24 5 36 -13 10 -17 26 -16 62 3 75 -32 126 -83
122 -14 -1 -38 6 -54 16 -25 17 -27 17 -22 1 4 -9 7 -21 7 -26 0 -6 4 -8 8 -5
4 2 14 1 22 -4 9 -5 20 -5 27 2 10 8 17 6 28 -8 23 -29 38 -57 27 -50 -12 7
-10 -43 3 -64 8 -13 7 -13 -8 -1 -14 11 -20 11 -41 -2 -21 -14 -25 -14 -39 1
-9 9 -20 12 -24 8 -4 -4 0 -13 10 -20 9 -7 17 -16 17 -20 0 -4 -12 2 -26 13
-15 12 -33 21 -41 21 -8 0 -11 5 -8 10 3 6 -1 10 -9 10 -9 0 -16 -3 -16 -6 0
-9 27 -33 33 -28 2 3 7 -4 10 -15 5 -19 3 -20 -15 -6 -12 7 -29 26 -38 40 -11
17 -20 23 -24 16 -4 -6 -16 -11 -26 -11 -10 0 -23 -6 -27 -12 -14 -22 -47 -35
-68 -28 -23 8 -75 -14 -75 -32 0 -23 -13 3 -15 29 -3 42 -24 614 -30 818 -3
99 -8 269 -11 378 -5 159 -4 197 7 197 10 0 10 3 1 12 -15 15 -17 172 -2 163
16 -10 12 7 -5 19 -13 10 -13 14 -1 39 8 15 11 27 5 27 -5 0 -9 5 -9 10 0 6 7
10 15 10 17 0 20 16 4 25 -6 4 -7 14 -4 24 14 31 13 18 35 546 16 363 32 510
85 760 13 61 26 128 30 150 15 89 98 426 137 560 51 171 120 382 134 407 7 14
14 31 14 37 0 13 96 263 140 366 9 22 29 69 44 105 50 119 167 343 230 440 35
52 75 124 90 160 103 248 416 721 751 1133 66 82 129 161 140 176 11 15 38 49
60 75 22 27 56 67 75 91 45 55 207 246 291 345 369 431 855 848 1290 1108 73
44 288 159 321 172 18 8 65 28 103 46 141 64 415 146 535 159 128 14 97 34
-55 36 l-110 1 60 20 c133 43 352 77 512 79 l78 1 -108 28 c-60 15 -110 30
-113 33 -16 15 365 48 496 42 122 -6 195 -12 220 -20 8 -2 21 -1 29 4 14 9 -6
14 -159 46 -109 22 -191 43 -198 49 -10 10 202 6 264 -5 90 -16 281 -78 358
-115 76 -38 76 -38 76 -24 0 5 -34 28 -75 51 -41 22 -75 42 -75 42 0 1 60 3
134 5 121 3 139 1 183 -18 26 -12 64 -29 83 -36 34 -14 34 -14 14 3 -11 10
-31 25 -44 34 -14 9 -20 20 -16 27 13 22 60 12 151 -31 185 -88 263 -137 362
-223 75 -65 95 -73 101 -40 6 27 -34 76 -113 141 -40 33 -72 61 -70 63 13 13
219 -115 298 -185 21 -19 43 -31 49 -27 6 4 8 3 5 -3 -3 -5 16 -32 43 -58 28
-27 50 -45 50 -39 0 5 -6 16 -12 23 -7 8 7 0 32 -16 63 -43 299 -261 453 -419
l50 -51 82 82 c45 44 109 102 143 128 34 26 90 68 124 95 308 234 640 419 993
552 322 122 457 164 627 196 46 9 101 19 123 23 22 5 112 20 200 35 88 14 201
33 250 42 119 21 119 21 205 33 41 5 110 13 153 16 42 4 77 11 77 16 0 5 -28
10 -62 11 -35 1 -76 3 -93 4 -16 1 -50 2 -75 3 -69 2 -29 16 85 30 145 17 288
24 257 14z m-395 -29 c-3 -3 -12 -4 -19 -1 -8 3 -5 6 6 6 11 1 17 -2 13 -5z
m-830 -90 c-3 -3 -12 -4 -19 -1 -8 3 -5 6 6 6 11 1 17 -2 13 -5z m-202 -59
c-76 -24 -141 -43 -143 -41 -7 8 229 83 263 84 11 1 -43 -19 -120 -43z m1789
25 c5 -5 0 -7 -13 -3 -12 3 -21 1 -21 -6 0 -6 8 -12 18 -13 9 -1 24 -2 32 -4
8 -1 22 -3 30 -4 35 -3 -30 -18 -112 -24 -205 -16 -382 -43 -433 -65 -73 -32
-71 -20 3 14 131 62 256 106 282 100 18 -4 29 -1 33 7 4 11 25 13 88 10 46 -2
88 -7 93 -12z m113 -36 c-3 -3 -12 -4 -19 -1 -8 3 -5 6 6 6 11 1 17 -2 13 -5z
m758 -114 c3 -5 -1 -10 -10 -10 -9 0 -13 5 -10 10 3 6 8 10 10 10 2 0 7 -4 10
-10z m262 -136 c-3 -3 -12 -4 -19 -1 -8 3 -5 6 6 6 11 1 17 -2 13 -5z m60 -10
c-3 -3 -12 -4 -19 -1 -8 3 -5 6 6 6 11 1 17 -2 13 -5z m-3972 -190 c-11 -8
-62 -45 -113 -82 -248 -179 -469 -384 -533 -496 -16 -28 -29 -45 -29 -38 0 8
-13 32 -28 55 -16 23 -42 62 -58 86 -45 69 -222 240 -360 349 l-29 23 36 -20
c29 -17 46 -20 83 -15 33 5 59 2 93 -12 27 -10 56 -17 66 -15 10 1 17 -4 17
-14 0 -9 -4 -14 -9 -10 -5 3 -12 1 -16 -5 -3 -6 2 -13 11 -17 10 -4 19 -2 22
5 2 7 11 12 20 13 14 0 13 2 -3 9 -18 8 -17 9 8 9 15 1 27 -3 27 -8 0 -5 17
-8 37 -8 26 2 39 7 41 18 4 24 -38 32 -55 11 -11 -15 -14 -15 -23 -2 -16 24
-12 30 19 30 16 0 34 7 42 16 7 8 21 13 31 11 10 -3 18 -2 18 3 0 11 -64 19
-68 9 -5 -12 -32 -11 -32 1 0 6 5 10 11 10 6 0 17 6 25 14 11 11 11 17 2 22
-8 5 -6 10 8 15 33 13 44 10 54 -16 5 -14 14 -25 19 -25 6 0 8 6 5 14 -6 16
54 44 64 30 8 -10 48 -34 57 -34 4 0 3 5 0 10 -4 6 5 10 22 9 15 -1 21 -3 12
-6 -11 -3 -15 -11 -12 -24 6 -21 30 -20 25 0 -2 8 8 11 25 9 23 -2 28 1 28 19
0 12 4 25 8 29 4 4 7 -2 7 -13 0 -28 42 -46 58 -24 9 13 11 13 9 1 -1 -10 6
-15 21 -14 12 0 22 -3 22 -8 0 -4 7 -8 15 -8 8 0 15 6 15 13 0 9 11 12 37 9
27 -3 40 0 50 13 7 10 16 16 19 12 4 -4 16 3 26 15 12 14 22 18 26 12 14 -21
38 -21 77 2 46 26 83 33 50 8z m-455 -30 c0 -2 -7 -4 -15 -4 -8 0 -15 4 -15
10 0 5 7 7 15 4 8 -4 15 -8 15 -10z m-395 -84 c3 -5 1 -10 -4 -10 -6 0 -11 5
-11 10 0 6 2 10 4 10 3 0 8 -4 11 -10z m35 -30 c-6 -11 -15 -18 -20 -15 -6 4
-2 17 7 32 19 29 30 15 13 -17z m5645 21 c3 -5 0 -13 -6 -17 -8 -5 -9 -3 -4 6
6 10 4 12 -9 7 -10 -4 -15 -3 -11 3 8 13 22 13 30 1z m592 -437 c-3 -3 -12 -4
-19 -1 -8 3 -5 6 6 6 11 1 17 -2 13 -5z m463 -499 c203 -23 450 -61 459 -70 2
-3 -8 -5 -23 -5 -18 0 -40 -14 -70 -43 -38 -38 -41 -45 -27 -55 9 -7 -11 0
-44 14 -103 45 -338 132 -385 144 -194 47 -190 48 90 15z m555 -35 c3 -5 -3
-10 -14 -10 -11 0 -23 5 -26 10 -3 6 3 10 14 10 11 0 23 -4 26 -10z m300 -420
c3 -5 1 -10 -4 -10 -6 0 -11 5 -11 10 0 6 2 10 4 10 3 0 8 -4 11 -10z m112
-72 c8 -14 -55 23 -70 40 -6 8 6 4 26 -8 20 -12 40 -27 44 -32z m34 -25 c13
-16 12 -17 -3 -4 -17 13 -22 21 -14 21 2 0 10 -8 17 -17z m72 -331 c46 -18 67
-32 67 -43 0 -10 15 -28 32 -41 18 -12 51 -41 73 -63 22 -22 74 -67 115 -99
164 -129 417 -410 493 -548 l19 -33 -34 35 c-18 20 -77 85 -131 146 -145 163
-367 378 -512 499 -33 28 -62 52 -65 55 -6 7 -160 121 -186 137 -10 7 -1 6 21
-3 22 -8 70 -27 108 -42z m484 -158 c-7 -7 -37 7 -37 17 0 6 9 5 21 -1 11 -7
19 -14 16 -16z m-14877 -1369 c-5 -14 -36 -80 -68 -147 -32 -68 -68 -143 -79
-168 -16 -32 -22 -39 -22 -23 -1 12 6 34 14 50 18 34 71 151 97 213 10 25 24
57 31 73 15 35 41 38 27 2z m-181 -401 c-6 -16 -13 -24 -16 -17 -5 13 16 58
23 50 3 -2 -1 -17 -7 -33z m-32 -66 c-3 -8 -6 -5 -6 6 -1 11 2 17 5 13 3 -3 4
-12 1 -19z m-47 -132 c0 -3 -4 -8 -10 -11 -5 -3 -10 -1 -10 4 0 6 5 11 10 11
6 0 10 -2 10 -4z m-404 -1623 c-10 -10 -19 5 -10 18 6 11 8 11 12 0 2 -7 1
-15 -2 -18z m18944 -2043 c0 -11 -4 -20 -10 -20 -5 0 -10 9 -10 20 0 11 5 20
10 20 6 0 10 -9 10 -20z m-1575 -240 c3 -5 2 -10 -4 -10 -5 0 -13 5 -16 10 -3
6 -2 10 4 10 5 0 13 -4 16 -10z m335 -115 c0 -20 97 -98 103 -83 2 8 13 -2 25
-22 12 -20 35 -46 50 -57 34 -25 50 -76 23 -71 -9 2 -17 13 -19 26 -2 12 -9
22 -15 22 -7 0 -48 29 -92 65 -76 61 -80 67 -91 122 -17 76 -16 85 1 44 8 -18
15 -39 15 -46z m-850 30 c0 -8 -4 -15 -8 -15 -5 0 -9 7 -9 15 0 8 4 15 9 15 4
0 8 -7 8 -15z m525 -15 c3 -5 1 -10 -4 -10 -6 0 -11 5 -11 10 0 6 2 10 4 10 3
0 8 -4 11 -10z m-485 -75 c0 -7 -4 -16 -10 -20 -5 -3 -7 -12 -3 -20 3 -8 0
-15 -6 -15 -6 0 -11 8 -11 18 0 10 -5 23 -11 29 -7 7 -9 19 -5 28 4 13 10 14
26 5 11 -6 20 -17 20 -25z m-70 -5 c0 -5 -4 -10 -10 -10 -5 0 -10 5 -10 10 0
6 5 10 10 10 6 0 10 -4 10 -10z m-50 -120 c0 -5 -4 -10 -10 -10 -5 0 -10 5
-10 10 0 6 5 10 10 10 6 0 10 -4 10 -10z m-16540 -336 c0 -2 -7 -4 -15 -4 -8
0 -15 4 -15 10 0 5 7 7 15 4 8 -4 15 -8 15 -10z m87 -77 c1 -17 -2 -39 -7 -47
-8 -12 -11 -12 -28 3 -10 9 -24 17 -30 17 -19 0 -14 20 11 41 34 28 52 24 54
-14z m-127 -28 c0 -6 9 -9 19 -6 17 4 18 2 9 -13 -9 -14 -15 -16 -30 -7 -19
13 -25 37 -8 37 6 0 10 -5 10 -11z m16917 5 c-3 -3 -12 -4 -19 -1 -8 3 -5 6 6
6 11 1 17 -2 13 -5z m-16846 -27 c-1 -12 -15 -9 -19 4 -3 6 1 10 8 8 6 -3 11
-8 11 -12z m52 -87 c-3 -11 -7 -20 -9 -20 -2 0 -4 9 -4 20 0 11 4 20 9 20 5 0
7 -9 4 -20z m17067 -40 c0 -5 -4 -10 -10 -10 -5 0 -10 5 -10 10 0 6 5 10 10
10 6 0 10 -4 10 -10z m97 -36 c-3 -3 -12 -4 -19 -1 -8 3 -5 6 6 6 11 1 17 -2
13 -5z m-607 -29 c-7 -9 -15 -13 -19 -10 -3 3 1 10 9 15 21 14 24 12 10 -5z
m285 -15 c-3 -5 -11 -10 -16 -10 -6 0 -7 5 -4 10 3 6 11 10 16 10 6 0 7 -4 4
-10z m-260 -20 c-3 -5 -11 -10 -16 -10 -6 0 -7 5 -4 10 3 6 11 10 16 10 6 0 7
-4 4 -10z m1021 -106 c-30 -21 -44 -16 -17 7 13 11 27 17 30 13 3 -3 -3 -12
-13 -20z m-115 -115 c-18 -50 -20 -51 -20 -21 -1 29 26 88 35 79 2 -2 -5 -28
-15 -58z m984 -26 c192 -41 383 -126 620 -278 96 -61 332 -255 435 -357 101
-99 232 -243 239 -261 2 -6 17 -25 32 -41 97 -104 271 -398 361 -611 57 -134
68 -162 81 -210 8 -27 24 -81 35 -120 26 -87 37 -145 27 -145 -9 0 -267 -57
-315 -70 -19 -5 -55 -11 -80 -15 -25 -3 -65 -12 -90 -20 -25 -7 -63 -18 -85
-23 -34 -9 -142 -40 -295 -85 -19 -5 -55 -17 -80 -27 -25 -9 -65 -22 -90 -30
-25 -7 -54 -16 -65 -20 -11 -4 -58 -22 -105 -40 -98 -37 -242 -95 -350 -140
-104 -44 -452 -216 -525 -260 -33 -20 -92 -54 -132 -75 -47 -25 -69 -43 -66
-52 4 -9 0 -11 -11 -7 -22 8 -301 -157 -393 -233 -12 -10 -61 -45 -108 -78
-48 -33 -113 -81 -145 -107 -33 -27 -62 -48 -66 -48 -10 0 -3 55 46 340 6 36
13 81 16 100 2 19 6 46 8 60 6 36 14 99 21 150 7 58 11 88 24 180 6 41 12 98
15 125 2 28 12 111 21 185 10 74 17 144 16 155 0 11 6 83 13 160 20 194 27
270 31 345 1 36 6 106 9 155 22 289 30 474 42 933 l7 313 26 20 c59 47 248
125 346 144 155 30 355 25 530 -12z m-19268 -482 c27 -10 62 -21 79 -24 16 -3
37 -8 47 -12 13 -6 17 -2 17 15 0 32 10 29 218 -68 19 -8 35 -20 37 -26 5 -16
23 -236 46 -561 11 -159 23 -315 25 -345 2 -30 13 -134 23 -230 11 -96 23
-211 26 -255 4 -44 9 -89 11 -100 2 -11 6 -40 9 -65 3 -25 13 -101 21 -170 9
-69 18 -143 20 -164 2 -22 6 -46 9 -55 2 -9 9 -56 15 -106 18 -163 117 -738
154 -899 16 -68 14 -97 -5 -64 -14 24 -131 104 -202 137 -137 64 -339 145
-462 186 -55 18 -118 41 -140 50 -22 10 -42 17 -45 17 -3 0 -15 4 -28 9 -13 5
-28 9 -33 9 -11 0 -276 87 -304 100 -11 5 -49 18 -85 29 -36 11 -78 25 -95 30
-16 6 -73 22 -125 36 -122 32 -197 53 -235 65 -16 5 -41 11 -55 14 -24 4 -38
7 -125 26 -22 5 -69 14 -105 21 -36 7 -73 16 -83 21 -9 5 -86 18 -170 30 -195
26 -186 25 -297 32 -52 4 -104 9 -115 11 -11 2 -94 7 -185 11 -91 3 -169 8
-173 11 -5 3 -6 17 -2 31 3 15 7 41 9 57 10 82 70 340 97 416 10 30 19 64 19
75 0 11 4 24 9 30 5 5 26 52 47 104 20 52 48 112 61 132 13 21 23 42 23 48 0
5 16 34 35 65 20 30 39 63 42 73 14 36 99 157 219 312 76 98 341 368 427 435
22 17 55 43 74 59 33 28 59 46 194 137 85 56 261 159 274 159 6 0 22 11 35 25
43 45 286 124 408 132 48 3 88 7 90 8 2 1 47 3 101 4 77 2 109 -2 148 -18z
m17458 -211 c3 -5 -1 -10 -9 -10 -9 0 -16 5 -16 10 0 6 4 10 9 10 6 0 13 -4
16 -10z m3697 -1646 c47 -372 43 -818 -12 -1157 -11 -66 -19 -122 -18 -125 0
-4 -1 -9 -2 -12 -1 -3 -3 -14 -5 -25 -3 -11 -8 -40 -13 -65 -5 -25 -15 -79
-22 -120 -6 -41 -15 -84 -20 -95 -4 -11 -17 -61 -29 -111 -12 -50 -33 -119
-47 -155 -14 -35 -32 -85 -40 -111 -8 -26 -19 -50 -24 -53 -6 -3 -10 -13 -10
-21 0 -19 -33 -91 -130 -285 -101 -201 -208 -366 -330 -509 -36 -42 -72 -84
-80 -94 -112 -133 -413 -390 -585 -498 -22 -14 -79 -50 -127 -81 -48 -31 -109
-67 -135 -80 -84 -42 -138 -72 -143 -79 -3 -4 -24 -15 -45 -24 -22 -9 -83 -38
-136 -64 -53 -26 -152 -71 -220 -100 -68 -29 -144 -61 -168 -71 -24 -11 -48
-19 -52 -19 -5 0 -28 -9 -52 -19 -37 -16 -184 -66 -344 -115 -65 -20 -276 -66
-303 -66 -16 0 -18 4 -11 18 18 33 41 90 41 100 0 8 32 84 61 147 5 11 11 29
13 40 2 11 14 45 26 75 26 64 79 234 85 270 2 14 9 45 15 70 5 25 14 68 19 95
5 28 12 61 15 75 4 14 8 39 11 55 2 17 11 66 20 110 8 44 20 112 25 150 5 39
13 84 16 100 4 17 9 41 11 55 2 14 6 36 8 50 3 14 7 50 10 80 4 30 13 114 20
185 26 232 30 325 30 630 0 370 -8 482 -51 675 -19 86 -18 97 9 111 12 7 24
15 27 19 5 8 9 10 223 153 80 53 152 103 159 111 13 12 88 57 168 99 248 130
509 263 585 297 28 12 68 31 89 41 22 11 47 19 57 19 9 0 22 7 29 15 7 8 17
15 22 15 6 0 24 6 41 14 18 8 66 26 107 41 41 14 79 30 85 34 12 10 205 75
385 130 74 23 191 59 260 80 141 43 250 74 359 102 41 11 77 22 80 24 17 17
28 -16 43 -131z m-4232 76 c0 -5 -7 -10 -15 -10 -8 0 -15 5 -15 10 0 6 7 10
15 10 8 0 15 -4 15 -10z m300 -40 c0 -5 -4 -10 -10 -10 -5 0 -10 5 -10 10 0 6
5 10 10 10 6 0 10 -4 10 -10z m-230 -70 c0 -5 -4 -10 -9 -10 -6 0 -13 5 -16
10 -3 6 1 10 9 10 9 0 16 -4 16 -10z m0 -50 c0 -5 -4 -10 -10 -10 -5 0 -10 5
-10 10 0 6 5 10 10 10 6 0 10 -4 10 -10z m-19228 -505 c35 -4 86 -11 113 -16
28 -5 91 -11 140 -14 238 -12 311 -18 320 -25 6 -4 46 -10 90 -14 44 -4 84
-11 91 -17 6 -5 26 -11 45 -13 19 -3 36 -6 39 -7 3 -1 16 -3 30 -5 14 -2 52
-10 85 -18 33 -8 92 -22 130 -31 39 -9 102 -25 140 -36 39 -12 93 -26 120 -33
28 -7 58 -16 68 -20 9 -5 28 -5 41 -2 16 4 41 -3 73 -18 26 -14 102 -45 168
-69 66 -25 141 -54 167 -65 26 -12 48 -17 50 -12 2 6 32 -2 68 -16 63 -26 380
-183 390 -194 11 -11 227 -111 236 -108 5 1 33 -15 62 -37 41 -31 52 -44 47
-60 -24 -88 -31 -543 -10 -755 12 -125 37 -317 45 -350 4 -19 11 -78 15 -130
16 -225 24 -290 60 -515 41 -247 99 -522 135 -631 5 -17 10 -38 10 -47 0 -19
66 -223 80 -249 6 -10 10 -27 10 -37 0 -11 5 -23 10 -26 6 -3 10 -16 10 -29 0
-12 4 -26 9 -31 7 -8 56 -157 77 -237 5 -16 -9 -17 -178 -13 -101 2 -217 9
-258 15 -133 21 -340 78 -396 110 -30 16 -54 28 -54 25 0 -3 -12 3 -27 12 -15
10 -24 12 -20 6 13 -21 -6 -15 -106 32 -53 25 -100 45 -105 45 -5 0 -12 9 -15
20 -4 17 -11 19 -31 14 -16 -4 -26 -2 -26 5 0 6 -11 11 -24 11 -14 0 -31 6
-38 13 -7 7 -33 24 -58 38 -25 13 -46 27 -48 32 -2 4 -12 7 -23 7 -10 0 -19 5
-19 10 0 6 -8 14 -17 17 -10 4 -24 13 -31 20 -7 7 -22 13 -33 13 -10 0 -19 5
-19 10 0 6 -7 10 -15 10 -8 0 -15 7 -15 15 0 8 -7 15 -15 15 -8 0 -15 5 -15
10 0 6 -4 10 -9 10 -6 0 -30 14 -54 30 -25 17 -49 30 -55 30 -6 0 -12 4 -14 8
-1 5 -32 28 -68 51 l-65 43 40 -43 c22 -23 49 -51 60 -60 55 -49 -65 16 -228
125 -384 255 -727 685 -957 1196 -29 63 -67 148 -85 187 -21 45 -30 75 -24 79
6 4 1 16 -13 31 -16 19 -19 27 -10 30 10 4 10 8 0 20 -20 25 -56 152 -92 328
-19 88 -38 178 -44 200 -16 61 -54 308 -63 415 -7 87 -4 557 4 623 2 15 4 41
5 58 2 23 6 30 16 26 8 -3 43 -9 78 -12z m17988 -185 c0 -5 -2 -10 -4 -10 -3
0 -8 5 -11 10 -3 6 -1 10 4 10 6 0 11 -4 11 -10z m2547 -412 c0 -13 2 -162 3
-333 1 -313 -3 -438 -21 -620 -5 -55 -12 -129 -15 -165 -3 -36 -9 -96 -15
-135 -5 -38 -11 -90 -14 -115 -3 -25 -8 -57 -11 -72 -3 -15 -7 -42 -9 -60 -2
-18 -10 -76 -20 -128 -9 -52 -18 -108 -21 -125 -5 -37 -41 -207 -53 -255 -5
-19 -12 -54 -16 -77 -4 -24 -10 -45 -14 -47 -4 -3 -6 -23 -4 -45 1 -22 -2 -43
-8 -46 -5 -4 -9 -1 -9 5 0 6 -5 8 -10 5 -6 -4 -7 -11 -4 -17 4 -6 1 -14 -7
-19 -11 -6 -10 -12 5 -28 17 -19 17 -20 -11 -23 l-28 -4 24 -10 c22 -10 23
-11 5 -18 -13 -5 -15 -9 -6 -15 16 -10 4 -44 -14 -37 -7 3 -16 1 -19 -5 -4 -5
-3 -9 2 -8 24 4 25 -3 3 -16 -14 -8 -19 -14 -12 -15 26 0 10 -32 -23 -46 -19
-8 -35 -20 -35 -26 0 -9 3 -9 12 0 7 7 21 12 33 12 19 -1 19 -1 3 -14 -10 -7
-18 -18 -18 -25 0 -6 -4 -11 -10 -11 -5 0 -7 -6 -4 -14 4 -10 0 -13 -13 -10
-11 3 -26 -2 -34 -12 -13 -16 -12 -17 14 -10 16 4 27 2 27 -4 0 -5 -7 -10 -16
-10 -11 0 -14 -6 -9 -20 4 -12 2 -20 -5 -20 -6 0 -9 -3 -7 -7 8 -14 -12 -53
-26 -53 -17 0 -47 -58 -40 -77 3 -7 -2 -15 -10 -19 -9 -3 -18 -12 -21 -20 -3
-9 -1 -12 4 -9 6 3 10 2 10 -4 0 -5 -4 -11 -10 -13 -5 -1 -27 -36 -47 -77 -26
-50 -45 -75 -58 -78 -11 -2 -126 -4 -255 -6 -244 -2 -449 12 -579 39 l-75 16
25 19 c13 10 41 21 63 25 57 9 102 57 213 222 54 80 100 151 102 157 2 5 9 17
16 25 7 8 29 47 50 85 20 39 43 77 49 85 25 30 216 431 216 451 0 6 9 28 19
48 21 40 76 189 87 236 4 17 14 40 21 52 8 12 12 27 8 33 -3 5 -1 10 4 10 6 0
11 7 11 15 0 8 4 23 9 33 11 23 31 82 36 107 2 11 22 81 45 155 22 74 48 160
56 190 9 30 24 82 34 115 26 86 89 353 135 575 14 68 27 125 28 126 1 1 38 30
82 65 44 35 98 77 120 94 22 16 42 33 43 37 7 16 17 8 19 -14z m-17734 -335
l-10 -48 -4 62 c-3 53 -2 60 10 49 10 -11 11 -25 4 -63z m147 -50 c0 -7 7 -13
15 -13 8 0 15 -4 15 -10 0 -5 -5 -10 -11 -10 -5 0 -7 -5 -4 -11 4 -6 13 -8 20
-5 30 11 105 -113 105 -174 0 -21 -20 -29 -20 -7 -1 6 -12 26 -25 42 l-25 30
0 -30 c0 -16 11 -75 24 -130 13 -55 27 -118 32 -140 4 -22 8 -42 9 -45 1 -3 9
-41 19 -85 17 -74 22 -84 74 -137 31 -32 59 -53 62 -48 6 10 153 -356 175
-440 8 -29 51 -143 107 -285 39 -99 118 -255 197 -389 22 -39 59 -112 82 -165
51 -115 184 -327 285 -452 l45 -57 -20 -33 c-12 -19 -21 -41 -21 -50 0 -16
-54 -49 -80 -49 -19 0 -71 -30 -66 -39 3 -4 20 -6 38 -3 29 4 31 3 18 -11 -40
-40 -206 -107 -247 -99 -7 2 -13 -2 -13 -9 0 -7 -10 -9 -25 -6 -25 4 -235 -15
-305 -28 -34 -6 -36 -5 -51 32 -34 79 -125 346 -158 458 -10 33 -20 67 -23 75
-3 8 -10 44 -16 80 -25 151 -44 258 -53 295 -5 22 -11 54 -14 70 -12 65 -36
203 -46 260 -5 33 -21 119 -34 190 -13 72 -29 166 -35 211 -6 44 -12 90 -14
101 -9 43 -36 230 -41 278 -3 28 -10 86 -16 130 -6 44 -13 98 -15 120 -19 188
-25 288 -31 464 l-6 204 46 -34 c25 -19 46 -40 47 -46z m287 -745 c-3 -8 -6
-5 -6 6 -1 11 2 17 5 13 3 -3 4 -12 1 -19z m9683 -5548 c0 -5 -15 -10 -32 -10
-25 0 -29 3 -18 10 20 13 50 13 50 0z m4216 -722 c43 -28 81 -53 83 -55 2 -2
2 -6 -2 -9 -3 -4 -23 7 -44 24 -21 16 -60 44 -87 61 -28 17 -45 31 -39 31 5 0
46 -23 89 -52z m-2479 -568 c28 -16 59 -40 67 -52 9 -13 33 -34 53 -48 30 -21
40 -38 64 -110 16 -47 35 -116 43 -155 28 -138 46 -208 57 -222 10 -11 5 -29
-24 -86 -35 -70 -80 -179 -92 -225 -9 -30 -21 -20 -30 24 -3 20 -10 44 -15 53
-4 9 -25 63 -45 121 -21 58 -48 128 -61 157 -13 28 -24 56 -24 62 0 5 -3 11
-7 13 -5 2 -24 35 -43 73 -64 130 -189 235 -281 235 -20 0 -71 -7 -113 -16
-41 -8 -90 -14 -108 -12 -31 3 -30 4 37 41 140 76 259 129 343 152 112 30 117
30 179 -5z m2098 -176 c91 -45 181 -150 243 -285 38 -83 113 -120 201 -100 74
18 132 15 194 -9 48 -18 63 -30 85 -66 15 -24 41 -51 60 -61 36 -19 78 -79
111 -156 l21 -49 -21 -46 c-67 -146 -101 -290 -94 -391 5 -65 -6 -81 -56 -81
-49 0 -193 -53 -279 -103 -90 -52 -204 -152 -237 -208 -19 -32 -33 -37 -33
-12 0 41 -33 136 -90 257 -104 224 -263 380 -447 440 l-53 18 8 61 c4 34 7
130 6 212 -1 149 -10 202 -56 327 -7 20 -6 35 7 63 38 79 170 195 236 208 72
13 141 7 194 -19z m-2901 -169 c37 -25 73 -45 81 -45 7 0 16 12 19 26 l7 26
127 -6 c225 -10 253 -15 290 -50 17 -17 32 -36 32 -42 0 -6 7 -17 15 -24 17
-14 63 -96 140 -250 103 -209 145 -286 185 -345 27 -40 28 -42 19 -132 -4 -51
-7 -119 -5 -152 l4 -60 -87 67 c-47 37 -122 89 -166 115 -77 47 -376 197 -391
197 -8 0 -164 55 -199 71 -11 5 -46 18 -77 29 -48 18 -58 25 -58 45 0 19 -14
30 -72 60 -40 21 -85 46 -100 56 -36 26 -44 24 -54 -13 -16 -55 -37 -40 -66
47 -15 44 -30 103 -34 132 l-6 51 54 31 c30 17 69 49 86 70 24 30 171 141 187
141 1 0 33 -20 69 -45z m2026 -8 c30 -17 71 -33 90 -36 29 -5 42 -17 76 -68
24 -36 49 -90 59 -130 23 -85 27 -266 9 -383 -28 -183 -15 -228 80 -273 31
-15 64 -27 74 -27 9 0 46 -10 82 -22 53 -19 77 -36 140 -98 68 -67 150 -187
150 -219 0 -6 9 -30 19 -54 47 -102 85 -267 106 -461 8 -66 28 -131 47 -149
18 -17 82 -47 102 -47 8 0 23 -11 32 -24 24 -38 96 -62 141 -48 28 9 40 8 51
-1 12 -9 -5 -14 -85 -23 -137 -17 -223 -39 -322 -85 -46 -22 -85 -38 -86 -37
-1 2 -25 50 -54 108 -168 336 -349 480 -602 480 l-87 0 -7 58 c-12 106 -56
292 -91 395 -137 396 -355 640 -616 689 -75 14 -78 20 -35 83 160 231 334 356
554 399 81 16 101 13 173 -27z m2557 -109 c-3 -8 -6 -5 -6 6 -1 11 2 17 5 13
3 -3 4 -12 1 -19z m14 -82 c-7 -9 -9 -30 -5 -57 12 -85 23 -108 69 -135 25
-14 48 -23 52 -21 5 3 15 0 23 -6 17 -14 70 -83 70 -92 0 -3 10 -22 23 -43 71
-114 111 -355 96 -573 -11 -159 -15 -174 -102 -352 -36 -74 -58 -105 -87 -126
-44 -32 -80 -73 -102 -116 -39 -80 -90 -175 -94 -175 -2 0 -10 14 -19 30 -22
43 -136 183 -214 263 -84 87 -143 130 -255 188 l-90 47 55 11 54 11 -3 118
c-8 268 24 597 65 676 16 31 185 214 212 230 9 6 50 24 91 41 41 17 95 46 119
63 48 35 60 40 42 18z m-5451 -139 c0 -7 16 -30 35 -52 43 -49 59 -75 46 -75
-5 0 -13 4 -16 10 -3 5 -25 18 -48 29 -23 11 -51 27 -61 35 -19 16 -19 16 4
41 26 27 40 32 40 12z m5555 -28 c11 -16 2 -17 -25 -2 -24 12 -24 13 -3 13 12
0 25 -5 28 -11z m-5748 -205 c26 -15 62 -34 78 -42 17 -9 50 -28 74 -44 25
-15 53 -28 62 -28 10 0 19 -4 21 -9 2 -4 55 -34 118 -65 245 -122 368 -159
400 -121 7 8 23 15 36 15 15 0 34 14 55 40 18 22 41 40 51 40 22 0 22 -2 -1
-48 -28 -56 -71 -197 -87 -286 -8 -43 -17 -83 -21 -89 -3 -6 -7 -22 -9 -36 -3
-28 -20 -105 -52 -236 -11 -44 -25 -107 -32 -140 -7 -33 -16 -69 -20 -80 -4
-11 -17 -63 -29 -115 -12 -52 -26 -113 -31 -135 -27 -119 -161 -664 -169 -690
-6 -16 -24 -84 -40 -150 -45 -178 -85 -321 -136 -495 -26 -85 -52 -177 -59
-205 -8 -27 -18 -61 -23 -73 -9 -23 -10 -22 -20 15 -7 21 -24 92 -38 158 -15
66 -31 127 -35 136 -5 9 -12 34 -15 55 -8 46 -8 46 -89 294 -35 107 -71 211
-79 230 -8 19 -22 51 -31 72 -9 20 -16 39 -16 42 0 3 -9 25 -19 49 -11 23 -32
71 -46 107 -52 126 -119 252 -142 267 -20 13 -23 21 -17 46 3 17 17 39 30 50
13 10 24 25 24 33 0 8 4 14 9 14 17 0 31 53 132 495 17 72 36 166 44 210 8 44
21 118 29 165 26 153 38 293 38 438 0 78 2 142 3 142 2 0 26 -12 52 -26z
m6828 -316 c124 -262 185 -528 185 -818 0 -219 -11 -267 -84 -395 -12 -22 -32
-57 -44 -77 -50 -87 -79 -126 -131 -179 -91 -90 -166 -97 -401 -34 -52 14
-124 32 -160 40 -36 8 -87 21 -115 30 -27 8 -63 15 -80 15 -67 1 -67 2 62 262
67 134 124 253 128 265 3 12 29 52 57 90 27 37 52 74 55 80 3 7 21 15 41 19
84 13 144 35 138 49 -3 8 0 12 7 9 8 -3 17 11 23 35 14 50 -3 93 -44 119 l-30
17 19 50 c25 65 73 247 95 357 l17 88 46 26 c53 30 130 63 149 63 7 1 37 -50
67 -111z m-3485 52 c0 -5 -2 -10 -4 -10 -3 0 -8 5 -11 10 -3 6 -1 10 4 10 6 0
11 -4 11 -10z m670 -1050 c0 -5 -2 -10 -4 -10 -3 0 -8 5 -11 10 -3 6 -1 10 4
10 6 0 11 -4 11 -10z m-6080 -136 c15 -55 29 -108 33 -118 4 -10 1 -32 -7 -49
-40 -93 -61 -162 -136 -447 -14 -51 -59 -296 -65 -355 -3 -27 -13 -86 -21
-130 -17 -92 -34 -257 -28 -267 2 -4 0 -9 -6 -13 -5 -3 -10 0 -10 7 0 7 -14
49 -30 92 -17 43 -32 86 -33 95 -5 27 -67 224 -83 259 -7 18 -23 67 -35 110
-24 85 -36 127 -74 252 -38 123 -55 180 -67 225 -5 22 -14 50 -20 62 -10 21
-14 70 -7 77 2 2 42 23 89 46 108 54 340 183 405 226 28 18 54 32 60 30 5 -1
21 -47 35 -102z m7754 -115 c-19 -38 -28 -49 -37 -40 -6 6 -19 11 -29 11 -28
0 -21 12 25 47 61 47 72 42 41 -18z m-637 -225 c-3 -3 -12 -4 -19 -1 -8 3 -5
6 6 6 11 1 17 -2 13 -5z m-127 -40 c-52 -20 -111 -41 -130 -48 -19 -7 -57 -16
-85 -19 l-50 -6 60 23 c71 28 209 73 245 79 58 10 50 4 -40 -29z m933 -198
c44 -38 177 -188 177 -201 0 -3 16 -27 35 -55 19 -27 37 -61 41 -75 4 -15 17
-49 30 -76 13 -27 24 -52 24 -56 0 -5 9 -37 19 -73 20 -65 59 -236 66 -288 13
-93 27 -183 48 -295 21 -113 28 -132 54 -158 16 -17 38 -32 49 -33 13 -2 19
-12 21 -35 l3 -31 -38 16 c-405 170 -630 234 -928 263 -145 14 -500 6 -611
-13 -178 -31 -277 -46 -299 -46 -25 0 -101 42 -214 120 -41 28 -93 63 -115 77
-35 22 -140 98 -200 143 -11 8 -41 36 -67 61 -46 44 -47 46 -43 97 4 53 48
157 86 201 20 24 22 24 78 13 31 -7 74 -12 95 -12 22 0 77 -4 125 -10 47 -5
167 -14 266 -20 99 -6 236 -19 305 -30 229 -36 347 -24 449 44 l50 34 20 -22
c12 -12 21 -26 21 -30 0 -5 13 -25 29 -45 15 -20 34 -49 42 -64 130 -258 140
-272 214 -284 30 -5 41 -1 64 21 41 39 56 93 41 142 -16 55 -23 71 -59 144
-52 107 -73 142 -145 240 l-68 93 20 41 c11 23 45 76 77 119 46 62 68 83 113
106 31 15 62 26 67 23 6 -3 32 -24 58 -46z m-2113 -366 c-20 -13 -33 -13 -25
0 3 6 14 10 23 10 15 0 15 -2 2 -10z"/>
<path d="M13480 25890 c0 -5 5 -10 10 -10 6 0 10 5 10 10 0 6 -4 10 -10 10 -5
0 -10 -4 -10 -10z"/>
<path d="M18668 25863 c7 -3 16 -2 19 1 4 3 -2 6 -13 5 -11 0 -14 -3 -6 -6z"/>
<path d="M13765 25840 c3 -5 8 -10 11 -10 2 0 4 5 4 10 0 6 -5 10 -11 10 -5 0
-7 -4 -4 -10z"/>
<path d="M20780 25030 c0 -5 12 -10 26 -10 14 0 23 4 19 10 -3 6 -15 10 -26
10 -10 0 -19 -4 -19 -10z"/>
<path d="M20080 21710 c-294 -25 -369 -34 -543 -70 -232 -48 -297 -65 -457
-119 -320 -110 -566 -239 -712 -374 -48 -44 -65 -85 -30 -73 9 3 -1 -10 -22
-29 -59 -53 -38 -62 70 -29 49 14 107 30 129 35 94 21 231 47 290 54 304 38
446 53 560 60 61 3 139 8 175 10 415 29 982 13 1260 -35 30 -5 125 -21 210
-35 85 -14 173 -30 195 -36 22 -6 72 -16 110 -24 104 -20 587 -146 770 -200
88 -26 174 -50 190 -54 17 -5 66 -22 110 -40 44 -17 83 -31 87 -31 5 0 37 -13
71 -30 35 -16 67 -30 71 -30 11 0 103 -43 201 -93 17 -8 138 -68 270 -132 132
-64 249 -121 260 -128 11 -6 88 -45 170 -88 83 -42 166 -85 185 -96 l35 -20
37 21 c42 23 69 79 49 99 -6 6 -11 17 -11 24 0 19 -68 78 -130 113 -115 65
-131 78 -185 149 -30 39 -87 101 -127 138 -40 36 -77 71 -83 77 -34 38 -440
326 -460 326 -4 0 -37 20 -74 43 -117 77 -425 237 -455 237 -3 0 -34 13 -68
29 -101 46 -185 78 -308 116 -63 20 -140 44 -170 54 -50 17 -121 35 -295 77
-33 7 -91 19 -129 24 -38 6 -73 13 -77 16 -5 2 -32 7 -61 10 -29 3 -56 8 -60
10 -3 2 -33 7 -65 10 -32 3 -71 7 -88 9 -16 1 -61 6 -100 9 -38 4 -90 9 -115
12 -88 9 -587 12 -680 4z"/>
<path d="M12137 21654 c-4 -4 -51 -9 -104 -10 -54 -2 -132 -9 -173 -15 -41 -6
-104 -15 -140 -19 -180 -24 -219 -30 -270 -39 -30 -6 -66 -13 -80 -15 -14 -3
-38 -8 -55 -12 -279 -56 -758 -200 -960 -289 -16 -7 -86 -37 -155 -66 -188
-81 -541 -265 -648 -338 -15 -10 -58 -39 -97 -65 -38 -26 -97 -67 -130 -92
-33 -24 -76 -55 -95 -69 -173 -122 -397 -332 -571 -536 -41 -48 -112 -117
-159 -153 -108 -85 -118 -105 -36 -71 35 15 47 10 25 -12 -6 -6 -9 -21 -7 -34
3 -20 13 -13 99 67 62 56 124 104 172 129 41 22 167 92 279 156 179 103 531
281 628 319 19 8 50 22 69 32 18 11 54 27 80 37 25 10 96 39 156 63 104 43
373 141 515 188 73 24 74 24 115 34 17 4 39 11 50 16 68 29 376 105 560 140
28 5 73 13 102 19 86 17 380 49 513 57 132 7 624 7 675 -1 17 -2 64 -6 105
-10 156 -11 197 -16 260 -25 36 -6 101 -15 144 -21 44 -5 82 -12 86 -14 3 -2
37 -7 75 -10 39 -4 75 -11 81 -16 6 -5 29 -9 50 -8 42 1 291 -42 389 -67 240
-61 320 -75 358 -64 20 6 37 16 37 22 0 6 6 19 13 27 20 24 39 99 31 124 -10
32 -83 106 -126 128 -21 11 -38 23 -38 28 0 5 -26 24 -57 42 -32 18 -128 76
-213 129 -180 113 -186 116 -337 181 -106 45 -199 75 -262 84 -117 17 -191 26
-286 36 -123 13 -658 23 -668 13z m1496 -451 c71 -19 95 -33 52 -32 -50 2
-128 23 -133 37 -5 16 6 15 81 -5z m177 -63 c0 -5 -4 -10 -9 -10 -6 0 -13 5
-16 10 -3 6 1 10 9 10 9 0 16 -4 16 -10z"/>
<path d="M24775 21270 c3 -5 8 -10 11 -10 2 0 4 5 4 10 0 6 -5 10 -11 10 -5 0
-7 -4 -4 -10z"/>
<path d="M20683 19499 c-101 -5 -118 -9 -160 -35 -56 -35 -124 -134 -92 -134
6 0 26 -13 45 -29 18 -17 48 -34 66 -38 18 -4 111 -6 207 -3 261 7 514 -15
711 -62 159 -38 179 -33 141 39 -24 47 -102 104 -202 148 -92 40 -298 91 -404
99 -81 6 -171 16 -190 19 -5 2 -61 0 -122 -4z"/>
<path d="M11370 19478 c-41 -4 -82 -8 -90 -9 -48 -5 -175 -46 -237 -76 -92
-46 -132 -79 -183 -156 -23 -34 -58 -79 -78 -99 -42 -45 -37 -57 15 -35 21 9
83 25 139 35 55 11 132 33 170 50 88 38 182 70 248 83 61 13 289 12 331 -1 17
-5 66 -20 110 -35 121 -39 131 -41 145 -15 32 59 -46 145 -184 203 -116 49
-250 68 -386 55z"/>
<path d="M20342 18918 c-4 -4 -35 -13 -70 -21 -50 -12 -64 -12 -70 -2 -5 9
-20 11 -52 6 -25 -4 -79 -6 -120 -4 -41 1 -82 0 -90 -4 -8 -3 -30 -5 -47 -4
-18 2 -33 -1 -33 -6 0 -4 -39 -8 -88 -8 -48 0 -123 -5 -167 -11 -44 -7 -84
-10 -88 -7 -4 2 -54 -2 -110 -11 -56 -8 -129 -18 -162 -21 -117 -13 -130 -16
-133 -25 -2 -6 -8 -8 -12 -5 -9 5 -117 -8 -200 -25 -25 -5 -84 -17 -132 -26
-49 -9 -88 -20 -88 -24 0 -9 -58 -23 -82 -21 -10 1 -18 -1 -18 -6 0 -4 -19 -9
-41 -10 -23 0 -44 -5 -48 -11 -3 -5 -22 -12 -41 -15 -70 -11 -135 -30 -151
-43 -9 -8 -18 -12 -21 -9 -9 10 -174 -165 -202 -214 -6 -9 -20 -24 -33 -34
-13 -10 -23 -25 -23 -32 0 -8 -8 -18 -17 -24 -10 -5 -14 -13 -10 -17 4 -4 13
-2 19 4 7 7 20 12 30 12 10 0 18 5 18 10 0 6 16 10 36 10 27 0 35 4 31 14 -4
11 3 13 34 9 26 -4 39 -2 39 6 0 7 5 9 10 6 6 -4 17 -1 25 5 8 6 19 9 25 5 6
-4 20 1 30 10 10 9 40 19 67 21 26 3 63 9 80 15 18 6 49 13 69 15 20 2 40 7
45 9 4 3 76 19 161 36 145 29 176 35 206 38 7 0 10 5 7 11 -4 6 5 7 24 4 17
-4 68 1 115 11 47 9 89 14 94 11 4 -2 26 0 48 5 36 10 73 13 197 21 29 2 46 7
43 14 -3 7 19 11 67 10 40 0 81 3 91 8 15 7 17 6 11 -3 -6 -10 -2 -11 16 -5
13 4 40 8 59 10 19 1 34 7 33 13 -2 6 2 11 7 11 6 0 10 -4 10 -10 0 -11 188
-11 239 1 19 4 37 13 41 19 7 11 40 4 40 -9 0 -3 -24 -15 -52 -25 -71 -24
-375 -175 -485 -240 -48 -28 -105 -60 -125 -69 -21 -10 -38 -21 -38 -26 0 -4
-18 -17 -39 -29 -22 -13 -68 -44 -103 -69 -35 -26 -88 -65 -118 -87 -30 -22
-87 -70 -125 -106 -39 -36 -84 -77 -100 -92 -88 -79 -304 -353 -305 -386 0 -4
-25 -32 -56 -62 -54 -54 -97 -127 -143 -248 -12 -29 -32 -75 -47 -103 -27 -54
-23 -55 42 -2 49 39 58 41 50 9 -9 -35 23 -71 55 -63 13 4 67 47 119 96 52 49
96 88 96 87 1 0 -4 -37 -12 -81 -19 -114 -18 -115 31 -62 24 26 46 47 49 47 3
0 2 -15 -1 -33 -3 -24 0 -37 12 -47 15 -13 24 -6 89 63 40 42 77 77 83 77 7 0
-9 -60 -38 -145 -27 -80 -49 -149 -49 -155 0 -23 185 -145 325 -214 222 -110
352 -153 702 -235 28 -7 74 -14 102 -17 l51 -5 1 33 c1 18 5 6 8 -27 4 -33 5
-89 4 -125 -10 -197 -1 -395 18 -432 6 -10 5 -19 -1 -23 -6 -4 -7 -13 -1 -23
5 -9 12 -42 15 -72 4 -30 11 -64 15 -75 5 -11 16 -54 26 -95 10 -41 21 -79 25
-85 4 -5 10 -23 14 -40 14 -57 159 -356 182 -376 8 -6 28 -34 44 -63 17 -28
47 -71 66 -96 51 -65 234 -252 280 -286 22 -16 41 -32 44 -35 3 -3 50 -36 105
-73 99 -67 225 -133 340 -178 35 -13 -236 -1 -345 16 -105 17 -219 40 -275 56
-16 5 -59 16 -95 25 -36 10 -74 21 -85 25 -11 4 -76 29 -145 55 -149 55 -380
169 -520 255 -93 58 -261 189 -344 269 -88 85 -187 211 -217 278 -24 52 -39
48 -39 -11 0 -84 65 -225 154 -336 67 -83 198 -214 264 -263 23 -18 75 -57
115 -87 40 -30 97 -68 127 -84 30 -16 67 -37 81 -47 34 -24 280 -141 344 -164
28 -10 54 -22 59 -27 6 -4 18 -8 27 -8 10 0 39 -10 66 -21 26 -12 64 -25 83
-30 19 -4 60 -15 90 -25 67 -20 302 -63 384 -70 32 -2 63 -7 67 -10 5 -3 93
-5 197 -5 146 0 214 4 312 21 131 22 253 53 307 76 17 8 36 14 42 14 6 0 19 4
29 10 9 5 55 28 102 50 116 55 163 84 259 160 45 36 119 94 165 130 110 86
186 152 186 162 0 14 -19 9 -62 -18 l-42 -27 34 44 c19 24 47 59 63 78 15 18
26 35 24 38 -3 2 -33 -17 -67 -44 -170 -133 -294 -195 -430 -218 -364 -61
-432 -65 -630 -36 -91 13 -125 24 -287 96 l-63 28 22 39 c113 200 354 353 658
418 90 20 123 22 254 17 106 -3 175 -11 231 -26 84 -22 299 -123 350 -165 l30
-24 -34 -36 c-19 -20 -30 -36 -24 -36 6 0 24 16 40 35 l30 35 47 -36 c26 -20
53 -33 60 -31 24 10 143 177 241 341 181 301 274 528 316 771 19 107 23 164
22 320 -1 106 -8 234 -16 290 -8 55 -13 102 -11 104 7 8 76 -114 103 -180 45
-111 63 -117 41 -12 -6 26 -14 77 -19 113 -5 36 -12 74 -14 85 -3 11 -8 49
-11 85 -4 36 -11 81 -16 100 -5 19 -14 57 -21 84 -7 28 -23 72 -36 98 -13 26
-23 54 -23 60 -1 19 -115 211 -128 216 -6 2 -16 -16 -22 -40 -15 -53 -56 -92
-141 -135 -57 -29 -79 -34 -194 -44 -260 -21 -518 19 -618 95 -44 34 -77 99
-77 152 0 45 64 165 108 201 73 61 219 88 434 80 148 -5 208 -16 333 -61 17
-7 18 -6 5 6 -9 7 -43 47 -77 88 -69 85 -274 286 -373 365 -76 62 -228 168
-269 189 -15 8 -53 36 -82 61 -30 26 -78 61 -107 78 -67 40 -78 47 -127 78
-43 27 -144 77 -213 104 -52 21 -50 38 4 40 21 1 48 5 59 10 19 7 20 7 1 -7
-18 -14 -15 -16 40 -22 32 -4 75 -9 94 -12 19 -2 62 -6 95 -8 63 -5 160 -22
176 -31 5 -4 6 1 3 9 -8 21 5 20 28 -1 14 -13 21 -14 30 -5 17 17 48 15 48 -3
0 -13 19 -20 44 -16 4 1 14 -3 21 -9 16 -13 30 3 19 21 -3 6 5 3 20 -6 14 -9
24 -20 21 -24 -2 -4 17 -9 43 -10 26 -2 63 -5 82 -7 19 -3 52 -6 72 -7 20 -2
45 -10 55 -19 12 -10 31 -15 56 -13 20 2 35 0 32 -5 -7 -11 42 -22 65 -15 11
3 21 14 24 23 3 10 42 55 86 101 44 45 78 87 74 92 -3 5 -18 9 -35 9 -16 0
-29 4 -29 9 0 10 -33 19 -90 25 -33 3 -46 7 -87 23 -10 3 -31 8 -46 10 -15 1
-36 7 -46 12 -10 6 -40 11 -67 12 -27 1 -53 5 -59 8 -16 10 -59 7 -68 -4 -6
-6 -10 -6 -14 2 -3 9 -10 10 -24 3 -15 -8 -19 -7 -19 5 0 8 -9 15 -20 15 -11
0 -20 5 -20 11 0 7 -10 9 -25 7 -14 -3 -25 -2 -25 2 0 5 -29 7 -65 6 -35 -1
-59 1 -53 5 17 10 -8 20 -34 14 -13 -3 -35 -2 -48 3 -15 6 -35 6 -52 0 -21 -8
-31 -6 -43 6 -12 11 -34 14 -100 12 -47 -2 -88 1 -91 6 -3 5 -12 7 -20 4 -7
-3 -16 -1 -20 5 -3 5 -15 7 -25 4 -11 -4 -25 -2 -32 3 -7 5 -48 10 -92 10 -44
1 -98 6 -120 11 -45 12 -125 18 -400 27 -261 9 -894 11 -903 2z m1958 -128 c0
-5 -4 -10 -10 -10 -5 0 -10 5 -10 10 0 6 5 10 10 10 6 0 10 -4 10 -10z m-210
-144 c0 -3 -4 -8 -10 -11 -5 -3 -10 -1 -10 4 0 6 5 11 10 11 6 0 10 -2 10 -4z
m38 -55 c3 -8 -1 -12 -9 -9 -7 2 -15 10 -17 17 -3 8 1 12 9 9 7 -2 15 -10 17
-17z m-1131 -417 c-3 -3 -12 -4 -19 -1 -8 3 -5 6 6 6 11 1 17 -2 13 -5z m80 0
c-3 -3 -12 -4 -19 -1 -8 3 -5 6 6 6 11 1 17 -2 13 -5z m209 -4 c-17 -6 -36 -5
-45 0 -11 7 -3 9 29 9 42 -1 43 -1 16 -9z m-71 -20 c-3 -5 -12 -10 -18 -10 -7
0 -6 4 3 10 19 12 23 12 15 0z m-770 -100 c-3 -5 -14 -10 -23 -9 -14 0 -13 2
3 9 27 11 27 11 20 0z m-66 -14 c-2 -2 -15 -9 -29 -15 -24 -11 -24 -11 -6 3
16 13 49 24 35 12z m451 -109 c0 -2 -10 -12 -22 -23 l-23 -19 19 23 c18 21 26
27 26 19z m-763 -33 c-3 -3 -12 -4 -19 -1 -8 3 -5 6 6 6 11 1 17 -2 13 -5z
m-37 -18 c0 -2 -7 -7 -16 -10 -8 -3 -12 -2 -9 4 6 10 25 14 25 6z m-60 -31
c-14 -8 -29 -14 -35 -14 -5 0 1 6 15 14 14 8 30 14 35 14 6 0 -1 -6 -15 -14z
m-140 -70 c0 -2 -10 -9 -22 -15 -22 -11 -22 -10 -4 4 21 17 26 19 26 11z m590
-298 c0 -2 -10 -12 -22 -23 l-23 -19 19 23 c18 21 26 27 26 19z m-90 -137 c-6
-11 -13 -20 -16 -20 -2 0 0 9 6 20 6 11 13 20 16 20 2 0 0 -9 -6 -20z m-1200
-13 c0 -2 -10 -12 -22 -23 l-23 -19 19 23 c18 21 26 27 26 19z m1121 -139
c-11 -23 -20 -39 -21 -34 0 14 33 86 38 82 2 -2 -6 -24 -17 -48z m-50 -112
c-14 -36 -22 -33 -9 5 6 16 12 28 14 26 3 -2 0 -16 -5 -31z m-84 -238 c-3 -8
-6 -5 -6 6 -1 11 2 17 5 13 3 -3 4 -12 1 -19z m-10 -40 c-3 -8 -6 -5 -6 6 -1
11 2 17 5 13 3 -3 4 -12 1 -19z m-10 -40 c-3 -8 -6 -5 -6 6 -1 11 2 17 5 13 3
-3 4 -12 1 -19z m-20 -95 c-3 -10 -5 -2 -5 17 0 19 2 27 5 18 2 -10 2 -26 0
-35z m-17 -78 c-6 -30 -8 -33 -9 -13 -1 25 8 62 14 56 2 -2 -1 -21 -5 -43z
m-13 -87 c-3 -7 -5 -2 -5 12 0 14 2 19 5 13 2 -7 2 -19 0 -25z"/>
<path d="M11287 18834 c-1 -2 -63 -4 -137 -5 -151 -1 -242 -8 -235 -18 2 -4
-44 -7 -102 -8 -88 0 -108 -3 -119 -17 -8 -12 -14 -14 -19 -6 -5 8 -10 8 -20
0 -10 -8 -19 -8 -34 -1 -30 17 -81 14 -81 -4 0 -8 -5 -15 -11 -15 -5 0 -7 5
-4 10 9 14 -23 12 -69 -5 -21 -7 -45 -11 -52 -8 -9 3 -34 -16 -62 -46 -68 -73
-122 -138 -122 -147 0 -4 -11 -20 -25 -34 -17 -18 -23 -33 -19 -44 6 -15 14
-17 53 -10 25 4 54 7 64 6 11 0 17 5 15 16 -2 12 5 17 25 17 15 1 27 -3 27 -7
0 -4 -10 -8 -22 -9 -22 0 -22 -1 -3 -8 11 -5 25 -5 30 -1 9 8 208 30 264 30
31 0 22 -9 -54 -50 -33 -19 -82 -46 -110 -61 -27 -15 -80 -43 -116 -63 -36
-19 -79 -45 -95 -59 -16 -13 -57 -40 -91 -61 -35 -21 -63 -41 -63 -45 0 -4
-10 -12 -22 -18 -49 -23 -227 -173 -336 -283 -184 -187 -352 -447 -352 -544 0
-12 -15 -51 -34 -87 -47 -88 -62 -154 -41 -185 8 -13 23 -24 32 -24 19 0 81
50 164 132 33 33 62 58 64 56 2 -2 0 -21 -4 -43 -5 -22 -12 -65 -15 -95 l-7
-55 49 55 49 54 -1 -44 c-1 -66 18 -59 119 39 47 46 97 90 111 97 14 7 51 35
82 61 l57 47 -47 -50 c-27 -27 -48 -55 -48 -60 0 -34 199 -213 238 -214 6 0
12 -4 12 -10 0 -5 5 -10 11 -10 6 0 30 -13 54 -30 24 -16 47 -30 50 -30 4 0
19 -9 34 -19 26 -19 221 -120 271 -141 14 -5 32 -14 40 -19 29 -18 107 -50
225 -92 56 -20 81 -25 86 -17 4 6 6 -28 4 -75 -2 -48 -6 -90 -9 -95 -6 -9 -18
-192 -21 -312 -1 -41 3 -118 7 -170 5 -52 11 -119 13 -147 2 -29 6 -61 10 -72
3 -10 7 -32 9 -47 6 -45 35 -167 45 -189 5 -11 22 -58 38 -105 15 -47 30 -87
33 -90 11 -11 70 -144 70 -158 0 -5 9 -17 20 -27 11 -10 20 -23 20 -29 0 -12
90 -151 113 -176 8 -8 23 -28 33 -45 20 -31 127 -148 204 -221 108 -103 288
-226 406 -280 114 -51 124 -56 124 -67 0 -19 -319 10 -450 40 -14 3 -32 7 -40
9 -8 2 -33 7 -55 13 -22 6 -60 14 -85 20 -62 13 -269 84 -337 115 -30 14 -63
26 -72 26 -9 0 -21 4 -27 9 -5 5 -61 36 -124 68 -63 33 -126 65 -140 73 -295
168 -553 404 -655 598 -20 38 -31 50 -38 43 -15 -15 5 -131 33 -195 70 -165
254 -366 484 -531 15 -11 40 -29 54 -40 68 -52 382 -218 482 -255 19 -7 49
-18 65 -25 314 -124 593 -178 920 -178 170 0 277 10 390 35 83 18 188 48 222
64 17 8 36 14 42 14 6 0 19 4 29 10 9 5 55 28 102 50 128 61 162 83 266 167
53 43 122 98 153 123 67 53 172 140 186 156 6 6 22 18 37 27 15 9 32 26 38 38
14 24 12 24 -95 -51 -38 -26 -72 -47 -74 -45 -5 6 179 215 190 215 5 0 8 3 6
8 -4 13 47 56 69 57 19 0 21 -2 11 -14 -10 -12 -9 -14 7 -8 13 5 24 1 37 -14
l19 -22 70 74 c39 41 100 117 135 169 124 185 327 610 360 752 8 35 22 84 31
109 13 34 18 91 22 264 4 207 5 218 19 182 26 -65 43 -41 23 33 -5 19 -14 71
-20 115 -41 317 -46 340 -91 442 -11 24 -19 48 -19 54 0 14 -42 89 -49 89 -3
0 -19 -16 -34 -35 -15 -19 -47 -45 -70 -58 -39 -20 -55 -22 -202 -22 -296 1
-563 65 -637 154 -96 113 -32 267 123 300 141 30 469 37 559 11 31 -9 60 -3
33 7 -7 3 -13 11 -13 18 0 8 -6 18 -12 22 -7 4 -31 31 -53 58 -35 44 -140 159
-215 234 -50 51 -136 127 -175 156 -22 16 -53 41 -68 55 -16 14 -50 39 -76 55
-98 61 -167 110 -223 157 -74 63 -123 84 -228 98 -46 6 -89 14 -94 17 -5 4
-34 7 -64 9 -41 2 -58 8 -69 23 -14 21 -53 29 -53 11 0 -5 10 -10 23 -10 19
-1 20 -2 5 -10 -11 -7 -26 -7 -43 0 -15 6 -98 15 -184 21 -86 6 -157 15 -159
19 -2 5 -26 6 -53 3 -33 -4 -49 -2 -49 6 0 6 -7 11 -16 11 -9 0 -12 -5 -8 -12
7 -11 -3 -10 -151 6 -11 2 -30 6 -43 10 -13 4 -28 3 -36 -3 -9 -8 -45 -8 -122
0 -60 5 -119 7 -131 4 -26 -6 -55 4 -47 16 3 5 -1 6 -9 3 -26 -10 -28 14 -4
33 13 10 27 30 30 45 4 15 23 43 42 62 19 20 35 42 35 51 0 8 6 15 13 15 9 0
9 2 -1 8 -7 5 -34 7 -60 5 -39 -2 -43 -1 -23 7 13 6 34 11 46 12 14 1 21 7 18
15 -3 9 -25 12 -67 12 -33 -1 -123 1 -198 3 -76 3 -139 4 -141 2z m858 -643
c17 -7 16 -9 -9 -15 -16 -4 -31 -5 -34 -1 -3 3 3 6 14 7 10 1 -21 5 -71 8
l-90 6 85 1 c47 1 94 -2 105 -6z m-312 -8 c-13 -2 -33 -2 -45 0 -13 2 -3 4 22
4 25 0 35 -2 23 -4z m-150 -20 c-7 -2 -19 -2 -25 0 -7 3 -2 5 12 5 14 0 19 -2
13 -5z m402 -3 c-3 -5 -12 -10 -18 -10 -7 0 -6 4 3 10 19 12 23 12 15 0z
m-458 -6 c-3 -3 -12 -4 -19 -1 -8 3 -5 6 6 6 11 1 17 -2 13 -5z m-50 -10 c-3
-3 -12 -4 -19 -1 -8 3 -5 6 6 6 11 1 17 -2 13 -5z m238 -134 c-3 -5 -12 -10
-18 -10 -7 0 -6 4 3 10 19 12 23 12 15 0z m-710 -30 c-27 -12 -43 -12 -25 0 8
5 22 9 30 9 10 0 8 -3 -5 -9z m-205 -100 c-8 -5 -19 -10 -25 -10 -5 0 -3 5 5
10 8 5 20 10 25 10 6 0 3 -5 -5 -10z m-130 -64 c0 -2 -7 -7 -16 -10 -8 -3 -12
-2 -9 4 6 10 25 14 25 6z m770 -31 c-7 -8 -17 -15 -23 -15 -6 0 -2 7 9 15 25
19 30 19 14 0z m-841 -8 c-2 -1 -13 -9 -24 -17 -19 -14 -19 -14 -6 3 7 9 18
17 24 17 6 0 8 -1 6 -3z m806 -27 c-3 -5 -12 -10 -18 -10 -7 0 -6 4 3 10 19
12 23 12 15 0z m-975 -64 c0 -2 -8 -10 -17 -17 -16 -13 -17 -12 -4 4 13 16 21
21 21 13z m-45 -36 c-3 -5 -12 -10 -18 -10 -7 0 -6 4 3 10 19 12 23 12 15 0z
m905 -24 c0 -2 -8 -10 -17 -17 -16 -13 -17 -12 -4 4 13 16 21 21 21 13z m-90
-125 c-5 -11 -15 -23 -21 -27 -6 -3 -3 5 6 20 20 30 30 35 15 7z m-64 -99
c-17 -16 -18 -16 -5 5 7 12 15 20 18 17 3 -2 -3 -12 -13 -22z m-37 -66 c-29
-49 -36 -46 -8 4 12 22 24 38 26 36 2 -2 -6 -20 -18 -40z m-38 -69 c-10 -9
-11 -8 -5 6 3 10 9 15 12 12 3 -3 0 -11 -7 -18z m-28 -63 c-10 -22 -21 -40
-25 -42 -5 -2 -8 -11 -8 -19 0 -9 -3 -13 -6 -10 -4 4 6 31 22 61 32 62 44 69
17 10z m-52 -118 c-14 -36 -22 -33 -9 5 6 16 12 28 14 26 3 -2 0 -16 -5 -31z
m-24 -73 c-3 -10 -5 -4 -5 12 0 17 2 24 5 18 2 -7 2 -21 0 -30z m-23 -57 c-3
-15 -8 -25 -11 -23 -2 3 -1 17 3 31 3 15 8 25 11 23 2 -3 1 -17 -3 -31z m-47
-148 c-3 -8 -6 -5 -6 6 -1 11 2 17 5 13 3 -3 4 -12 1 -19z m-10 -40 c-3 -8 -6
-5 -6 6 -1 11 2 17 5 13 3 -3 4 -12 1 -19z m1293 -1413 c0 -8 5 -15 10 -15 6
0 10 7 10 16 0 12 6 15 23 10 12 -4 47 -14 77 -22 30 -9 71 -25 90 -38 191
-122 493 -135 705 -31 28 13 57 26 65 27 8 2 18 8 22 13 4 6 8 -1 8 -14 0 -17
4 -22 16 -17 10 4 13 2 8 -6 -5 -7 0 -9 14 -6 12 4 22 2 22 -3 0 -5 13 -9 29
-9 40 0 47 -15 22 -46 -24 -30 -27 -45 -8 -41 6 1 11 -4 9 -12 -3 -12 -1 -12
13 -1 15 12 15 14 0 23 -13 7 -14 12 -4 23 13 16 33 19 24 4 -4 -6 -1 -17 5
-25 10 -12 10 -18 -1 -31 -10 -12 -4 -11 23 4 26 15 38 17 41 9 3 -9 7 -9 18
-1 20 16 48 14 42 -3 -4 -10 -9 -11 -18 -3 -10 8 -15 8 -20 0 -8 -13 12 -40
31 -40 8 0 14 -4 14 -10 0 -5 5 -10 11 -10 5 0 8 4 4 9 -3 5 -1 12 5 16 5 3
10 2 10 -3 0 -6 9 -8 20 -5 11 3 20 0 20 -6 0 -6 -7 -11 -15 -11 -8 0 -15 -4
-15 -10 0 -5 4 -10 8 -10 4 0 8 -9 8 -20 0 -11 -4 -20 -8 -20 -4 0 -8 -6 -8
-12 0 -14 -136 -159 -187 -198 -108 -85 -149 -112 -243 -157 -93 -45 -126 -55
-230 -68 -14 -2 -81 -13 -150 -24 -244 -39 -449 -22 -625 54 -16 7 -59 25 -95
41 -36 15 -74 36 -86 46 -11 10 -25 18 -31 18 -23 0 -212 162 -257 220 -16 21
-14 20 13 -5 25 -24 34 -27 41 -16 4 8 6 20 3 28 -3 7 1 13 8 13 9 1 8 4 -3
11 -20 11 -24 40 -5 37 6 -2 11 5 9 14 -2 13 4 16 25 15 22 -2 27 2 25 16 -5
26 25 67 48 67 10 0 22 5 25 10 3 6 15 10 27 10 11 0 22 8 25 20 3 11 13 20
22 20 9 0 27 7 39 16 18 12 23 13 21 3 -4 -31 2 -41 20 -36 10 2 25 0 34 -4
16 -10 65 7 80 26 4 6 11 5 17 -5 8 -13 10 -12 10 3 0 9 -5 17 -11 17 -7 0 -1
8 12 18 29 22 63 36 54 22 -3 -6 -1 -10 5 -10 20 0 22 31 4 52 -11 12 -14 18
-7 15 6 -4 14 -3 17 2 3 5 -1 12 -10 15 -13 5 -14 9 -4 21 16 19 30 19 30 0z
m-82 -91 c-10 -10 -21 -13 -29 -8 -12 7 0 14 41 23 2 1 -3 -6 -12 -15z m-438
-308 c0 -3 -4 -8 -10 -11 -5 -3 -10 -1 -10 4 0 6 5 11 10 11 6 0 10 -2 10 -4z
m347 -612 c-3 -3 -12 -4 -19 -1 -8 3 -5 6 6 6 11 1 17 -2 13 -5z"/>
<path d="M12265 15240 c3 -5 8 -10 11 -10 2 0 4 5 4 10 0 6 -5 10 -11 10 -5 0
-7 -4 -4 -10z"/>
<path d="M12210 15169 c0 -5 5 -7 10 -4 6 3 10 8 10 11 0 2 -4 4 -10 4 -5 0
-10 -5 -10 -11z"/>
<path d="M13450 15140 c-8 -5 -10 -10 -5 -10 6 0 17 5 25 10 8 5 11 10 5 10
-5 0 -17 -5 -25 -10z"/>
<path d="M11710 18820 c0 -5 5 -10 11 -10 5 0 7 5 4 10 -3 6 -8 10 -11 10 -2
0 -4 -4 -4 -10z"/>
<path d="M9315 18556 c-46 -9 -60 -16 -59 -29 2 -18 -12 -24 -18 -7 -1 5 -13
7 -26 4 -19 -5 -20 -9 -10 -22 11 -13 10 -14 -10 -8 -13 5 -29 3 -37 -4 -10
-8 -18 -8 -33 1 -15 10 -28 7 -71 -15 -29 -14 -64 -26 -77 -26 -14 0 -22 -4
-19 -10 4 -6 -6 -10 -24 -10 -31 0 -50 -15 -29 -23 7 -3 -5 -4 -27 -3 -42 3
-95 -20 -95 -41 0 -7 -4 -13 -10 -13 -5 0 -10 4 -10 10 0 5 -7 7 -15 4 -8 -4
-12 -10 -9 -15 3 -5 -9 -9 -26 -9 -18 0 -33 -6 -36 -15 -4 -8 -11 -15 -18 -15
-9 -1 -167 -195 -236 -291 -8 -11 -28 -35 -43 -52 -16 -18 -36 -43 -45 -57 -9
-14 -38 -53 -65 -87 -45 -59 -48 -65 -45 -116 3 -54 3 -54 23 -34 17 17 17 19
3 14 -15 -5 -18 0 -18 38 0 42 11 58 25 35 10 -16 25 -12 19 5 -4 8 -1 22 6
30 6 8 9 18 6 24 -13 21 36 -3 51 -25 23 -35 43 -31 43 9 0 18 7 42 15 53 8
10 14 13 13 6 -2 -8 5 -19 14 -25 14 -9 20 -8 32 8 21 27 20 38 -3 32 -13 -3
-18 -1 -14 8 3 8 17 12 36 10 l32 -3 -33 14 c-26 11 -37 12 -48 3 -15 -13 -48
-4 -39 10 3 5 1 13 -5 16 -8 5 -7 11 1 21 9 12 14 11 32 -1 31 -22 43 -18 42
13 0 20 5 28 22 30 11 2 29 15 40 29 10 14 26 33 35 41 16 15 16 16 0 28 -16
12 -16 13 1 19 9 4 29 5 43 2 36 -7 94 11 94 28 0 9 -6 12 -15 9 -21 -9 -19
13 3 25 14 7 21 5 30 -9 10 -17 14 -17 54 -3 24 8 47 19 52 24 6 5 23 9 38 9
30 0 35 9 17 27 -8 8 -4 11 15 10 18 -2 25 -6 21 -16 -4 -10 1 -12 17 -7 13 4
38 10 57 13 21 4 35 13 39 25 4 18 22 26 22 9 0 -5 11 -8 25 -8 14 0 28 3 31
8 3 5 14 9 26 9 14 0 18 5 15 15 -5 11 0 13 23 8 33 -6 64 12 56 34 -3 7 1 13
9 13 8 0 26 17 39 38 14 20 34 48 45 62 11 14 21 29 21 33 0 5 11 23 24 40 31
43 39 57 29 56 -4 -1 -35 -7 -68 -13z m-125 -246 c0 -5 -4 -10 -10 -10 -5 0
-10 5 -10 10 0 6 5 10 10 10 6 0 10 -4 10 -10z m-400 -120 c0 -5 -4 -10 -10
-10 -5 0 -10 5 -10 10 0 6 5 10 10 10 6 0 10 -4 10 -10z m-159 -34 c-12 -14
-61 -19 -61 -5 0 4 12 10 28 12 15 2 31 5 36 6 5 0 3 -5 -3 -13z"/>
<path d="M12075 18540 c3 -5 8 -10 11 -10 2 0 4 5 4 10 0 6 -5 10 -11 10 -5 0
-7 -4 -4 -10z"/>
<path d="M12700 18490 c0 -5 5 -10 10 -10 6 0 10 5 10 10 0 6 -4 10 -10 10 -5
0 -10 -4 -10 -10z"/>
<path d="M12800 18490 c0 -5 5 -10 11 -10 5 0 7 5 4 10 -3 6 -8 10 -11 10 -2
0 -4 -4 -4 -10z"/>
<path d="M14997 18296 c-20 -24 -34 -46 -31 -49 3 -2 -6 -14 -20 -25 -15 -11
-26 -23 -26 -27 0 -4 -14 -25 -31 -46 l-30 -39 23 -9 c13 -6 44 -13 71 -16 26
-3 47 -10 47 -15 0 -4 9 -6 20 -3 14 4 20 1 18 -8 -2 -7 6 -13 17 -14 14 0 22
-10 28 -37 5 -20 19 -48 32 -62 21 -22 21 -26 6 -41 -15 -15 -14 -17 9 -35 14
-11 19 -20 12 -20 -12 0 -8 -39 6 -65 4 -5 7 -32 9 -60 1 -27 5 -61 8 -75 3
-14 8 -49 11 -79 2 -29 8 -61 13 -70 5 -9 6 -22 4 -29 -3 -7 0 -18 5 -25 6 -7
12 -43 14 -81 1 -41 7 -70 14 -73 8 -3 10 -14 5 -31 -9 -32 -2 -142 10 -158 4
-5 5 -23 0 -40 -7 -28 0 -88 14 -126 4 -11 3 -18 -4 -18 -7 0 -9 -16 -6 -42 3
-24 7 -59 9 -78 2 -19 0 -40 -5 -46 -5 -6 -6 -22 -2 -35 7 -22 9 -57 3 -69 -2
-3 -4 -50 -5 -105 -1 -55 -5 -119 -10 -143 -6 -36 -4 -46 12 -58 13 -10 14
-13 2 -9 -13 5 -17 -7 -22 -72 -11 -127 -18 -187 -22 -192 -2 -2 0 -12 5 -22
7 -12 6 -26 -1 -43 -10 -20 -9 -29 2 -42 11 -13 11 -18 2 -21 -7 -3 -13 -13
-13 -23 0 -10 -5 -22 -10 -25 -6 -3 -8 -22 -6 -40 3 -19 0 -37 -5 -40 -13 -9
-11 -53 4 -58 10 -4 10 -7 0 -18 -18 -18 -16 -27 5 -32 13 -4 12 -5 -5 -6 -24
-1 -40 -38 -29 -67 4 -9 2 -22 -3 -28 -8 -10 -18 -80 -25 -177 -1 -19 -7 -42
-12 -50 -12 -19 -12 -62 1 -71 6 -5 5 -11 -3 -16 -7 -5 -12 -13 -11 -18 1 -5
-4 -22 -11 -39 -7 -16 -20 -73 -29 -125 -9 -52 -19 -99 -22 -105 -4 -5 -10
-32 -14 -60 -4 -27 -10 -54 -13 -60 -3 -5 -7 -24 -8 -42 0 -18 -6 -38 -11 -45
-6 -7 -11 -27 -11 -44 0 -17 -8 -48 -16 -69 -9 -21 -16 -48 -16 -62 0 -13 -11
-58 -25 -99 -14 -41 -25 -80 -25 -87 0 -6 -7 -25 -15 -41 -8 -15 -12 -32 -9
-37 3 -6 0 -16 -6 -24 -6 -8 -9 -18 -6 -24 4 -5 -1 -16 -9 -24 -8 -9 -15 -22
-15 -31 0 -8 -5 -18 -10 -21 -6 -4 -8 -10 -5 -15 3 -5 -5 -33 -18 -62 -22 -49
-28 -54 -78 -71 -30 -11 -67 -25 -84 -33 -16 -7 -56 -18 -87 -24 -32 -6 -60
-16 -63 -21 -4 -5 -20 -9 -36 -9 -17 0 -51 -9 -77 -19 -79 -32 -173 -59 -252
-72 -41 -7 -80 -16 -86 -21 -6 -4 -23 -9 -39 -10 -15 -2 -30 -8 -32 -15 -3 -9
-10 -10 -22 -3 -12 6 -33 4 -61 -4 -28 -8 -39 -15 -30 -19 8 -3 3 -4 -11 -1
-14 3 -82 -6 -152 -20 -190 -39 -442 -75 -535 -77 -46 -1 -104 -6 -130 -12
-45 -9 -96 -14 -204 -17 -27 -1 -48 -5 -48 -8 0 -4 -28 -6 -62 -5 -162 4 -254
5 -263 3 -5 -1 -20 -1 -33 0 -13 1 -29 -4 -37 -10 -8 -6 -19 -9 -24 -5 -20 12
-179 17 -186 6 -3 -6 -13 -11 -21 -11 -8 0 -13 4 -10 8 7 11 -75 9 -93 -2 -8
-5 -16 -3 -21 5 -6 9 -11 5 -15 -14 -4 -15 -11 -27 -15 -27 -4 0 -10 -8 -13
-17 -3 -10 -13 -29 -21 -43 -9 -14 -25 -46 -36 -71 -12 -25 -30 -56 -41 -68
-11 -11 -15 -21 -10 -21 5 0 13 5 16 10 4 6 13 7 23 1 10 -5 49 -12 87 -16 62
-7 68 -6 57 8 -11 13 -10 15 7 10 12 -3 21 -8 21 -12 0 -9 76 -8 85 0 3 4 28
0 56 -8 39 -12 53 -12 64 -3 12 10 18 10 30 0 11 -9 25 -10 57 -2 26 7 47 7
53 2 11 -9 301 -6 520 6 61 3 130 7 155 8 25 1 52 5 60 8 8 4 44 9 80 11 36 3
110 12 165 21 55 8 116 18 135 21 19 3 58 9 85 15 128 24 223 41 255 45 19 3
62 12 95 20 33 9 69 18 80 20 11 2 37 10 57 19 21 9 70 21 110 26 39 6 84 17
100 24 15 8 47 17 70 21 24 4 52 12 63 19 11 6 27 11 35 11 21 1 161 43 182
55 10 6 25 10 33 10 8 0 15 5 15 11 0 5 5 7 11 4 5 -4 18 0 28 9 10 9 22 16
27 15 5 -1 38 1 73 6 75 9 110 35 174 129 31 46 41 70 40 99 0 20 3 37 7 37
12 0 18 48 7 59 -7 7 -5 17 7 30 9 10 16 22 15 27 -1 5 0 16 3 24 19 54 39
118 42 135 9 41 57 241 67 275 5 19 11 48 14 63 2 16 9 34 14 41 6 7 8 15 5
19 -3 3 -1 21 5 39 11 35 15 57 26 148 4 30 11 60 15 65 4 6 10 30 14 55 4 25
13 79 21 120 8 41 17 91 20 110 3 19 8 43 11 53 3 9 0 17 -6 17 -7 0 -5 7 4
16 9 8 14 19 11 23 -2 5 0 23 6 42 6 19 16 65 22 103 l12 69 50 13 c227 56
475 91 475 67 0 -6 -13 -20 -29 -29 -37 -22 -91 -86 -122 -144 -19 -37 -23
-59 -23 -130 1 -71 5 -93 27 -135 49 -96 116 -142 273 -184 60 -16 134 -36
164 -45 62 -18 138 -20 225 -6 33 5 125 14 205 20 80 5 168 16 196 24 122 33
222 116 275 230 l29 63 -20 149 c-11 82 -25 172 -31 200 -9 47 -12 51 -34 46
-18 -3 -25 0 -25 11 0 20 39 29 78 18 29 -9 192 -21 327 -25 l60 -2 2 -33 c2
-19 8 -40 14 -47 8 -10 8 -14 1 -14 -11 0 -8 -62 3 -81 3 -4 8 -32 11 -61 3
-29 10 -75 16 -103 5 -27 11 -66 13 -85 5 -40 28 -169 44 -248 6 -29 10 -56
10 -60 -1 -4 0 -9 1 -12 2 -5 3 -15 14 -107 3 -28 12 -69 20 -90 8 -21 17 -60
21 -88 4 -27 18 -99 32 -160 14 -60 36 -159 48 -220 13 -60 30 -134 39 -163
10 -29 14 -57 11 -63 -4 -5 -3 -15 3 -22 5 -7 19 -50 32 -97 14 -52 31 -93 44
-105 12 -12 20 -27 18 -35 -5 -13 -3 -13 11 -1 10 7 17 9 17 4 0 -13 102 -16
110 -3 4 6 17 6 36 0 91 -28 253 -66 324 -74 14 -2 74 -11 134 -20 60 -10 120
-15 133 -11 13 3 23 2 23 -2 0 -5 24 -9 53 -11 28 -1 93 -9 142 -17 50 -8 135
-17 190 -19 55 -3 123 -8 151 -10 59 -6 77 6 109 72 11 23 28 45 39 48 15 5
16 8 5 15 -11 7 -8 13 13 32 24 21 31 47 17 61 -9 9 -146 20 -271 20 -71 1
-128 3 -128 6 0 3 -62 5 -137 6 -76 0 -181 4 -233 8 -90 6 -280 13 -437 15
l-71 1 -7 33 c-9 49 -48 157 -55 157 -4 0 -5 11 -3 25 3 13 0 39 -7 57 -7 18
-18 60 -26 93 -7 33 -20 89 -28 125 -9 36 -16 78 -16 93 0 16 -4 36 -10 46 -5
10 -16 62 -25 117 -9 54 -21 108 -27 119 -7 11 -12 36 -13 55 -2 41 -15 121
-22 133 -3 5 -7 27 -9 50 -6 73 -11 96 -23 111 -7 8 -9 25 -6 39 4 13 1 44 -5
68 -7 24 -14 64 -17 89 -7 78 -9 89 -16 96 -4 4 -7 15 -7 25 0 9 -6 20 -12 22
-9 4 -10 8 -2 14 12 10 6 103 -7 103 -5 0 -8 15 -7 33 1 28 -7 124 -17 197 -2
14 -7 52 -11 85 -3 33 -9 62 -13 65 -3 3 -7 25 -8 50 -3 71 -10 154 -12 165
-2 6 -3 26 -3 45 1 19 -2 42 -5 50 -3 8 -7 62 -9 120 -5 165 -13 385 -15 390
-1 3 -1 9 0 14 1 5 4 104 6 220 2 116 7 225 11 242 3 20 2 34 -6 39 -7 4 -8
11 -1 18 5 7 12 46 16 87 3 41 9 98 12 125 2 28 6 70 7 95 2 25 6 54 9 65 9
28 20 115 19 145 0 14 5 46 13 73 8 26 10 47 4 47 -5 0 -9 -5 -9 -11 0 -6 -19
-36 -43 -67 -39 -51 -95 -137 -210 -323 -25 -42 -36 -69 -32 -86 2 -14 -2 -35
-10 -47 -8 -13 -14 -38 -12 -57 2 -19 0 -48 -5 -65 -5 -18 -4 -42 1 -57 6 -16
6 -28 -2 -36 -6 -6 -11 -37 -12 -69 -1 -32 -3 -62 -6 -67 -3 -6 -5 -61 -4
-123 0 -88 4 -115 15 -122 13 -8 12 -10 -2 -10 -21 0 -23 -11 -6 -28 9 -9 9
-12 1 -12 -15 0 -13 -141 2 -153 7 -6 7 -10 0 -13 -6 -2 -9 -35 -7 -76 8 -202
10 -240 16 -333 4 -55 9 -116 13 -135 7 -40 8 -89 2 -93 -2 -2 -49 1 -104 5
-55 5 -158 11 -230 13 -71 3 -161 7 -200 9 -39 2 -76 -1 -82 -6 -9 -7 -13 -7
-13 1 0 6 -11 11 -25 11 -14 0 -25 -4 -25 -10 0 -14 -28 -12 -33 3 -3 9 -7 9
-20 -2 -11 -8 -17 -9 -17 -2 0 6 -19 11 -42 11 -24 0 -54 1 -68 1 -14 1 -68
-2 -120 -6 -52 -4 -105 -8 -118 -9 -12 -1 -25 -8 -27 -17 -4 -12 -20 -16 -73
-17 -37 -1 -114 -8 -172 -16 -58 -8 -141 -20 -185 -26 -44 -6 -93 -13 -108
-15 -99 -14 -255 -51 -320 -75 -59 -22 -78 -21 -60 2 15 19 23 98 11 98 -7 0
-6 5 1 14 6 7 13 53 16 102 3 49 5 89 6 89 1 0 11 71 11 85 0 8 0 29 -1 45 -1
17 3 55 8 86 5 31 7 164 4 295 -2 132 -4 258 -3 282 0 23 -3 48 -7 55 -4 6 -8
41 -10 77 -3 86 -9 129 -17 137 -3 3 -6 35 -6 70 0 66 -13 108 -31 98 -5 -4
-9 -1 -9 4 0 6 5 11 11 11 11 0 10 17 -7 113 -3 20 -10 40 -15 43 -5 3 -9 20
-9 37 0 34 -24 137 -39 172 -5 11 -19 53 -32 93 -14 49 -30 78 -45 88 -26 18
-41 46 -18 37 19 -7 18 0 -6 42 -11 20 -20 41 -20 48 0 7 -17 30 -37 52 -21
22 -36 43 -35 48 1 4 -2 7 -7 7 -9 0 -41 55 -41 71 0 5 8 6 18 3 14 -5 14 -3
-2 10 -22 18 -40 21 -31 6 3 -5 2 -10 -3 -10 -6 0 -12 7 -16 15 -11 30 -52 17
-89 -29z m-67 -176 c0 -5 -4 -10 -9 -10 -6 0 -13 5 -16 10 -3 6 1 10 9 10 9 0
16 -4 16 -10z m1590 -2421 c15 -28 5 -23 -15 7 -9 15 -12 23 -6 20 6 -4 16
-16 21 -27z m398 -478 c3 -8 -1 -12 -9 -9 -7 2 -15 10 -17 17 -3 8 1 12 9 9 7
-2 15 -10 17 -17z m1109 -1327 c-3 -3 -12 -4 -19 -1 -8 3 -5 6 6 6 11 1 17 -2
13 -5z m-5667 -230 c0 -8 -5 -12 -10 -9 -6 4 -8 11 -5 16 9 14 15 11 15 -7z"/>
<path d="M8384 18228 c-11 -13 -27 -34 -36 -48 -17 -28 -60 -140 -54 -140 2 0
36 47 75 105 56 82 67 105 53 105 -10 0 -27 -10 -38 -22z"/>
<path d="M8286 17774 c-4 -12 -2 -15 9 -10 8 3 15 1 15 -4 0 -6 -7 -10 -15
-10 -18 0 -19 -7 -2 -24 34 -34 96 -21 76 16 -5 10 -14 18 -20 18 -6 0 -17 7
-25 15 -20 19 -30 19 -38 -1z"/>
<path d="M8405 17760 c-19 -7 -19 -7 0 -17 15 -8 23 -7 32 2 15 17 -3 25 -32
15z"/>
<path d="M8220 17536 c0 -8 5 -18 10 -21 6 -3 10 1 10 9 0 8 -4 18 -10 21 -5
3 -10 -1 -10 -9z"/>
<path d="M24505 17480 c-3 -5 -1 -10 4 -10 6 0 11 5 11 10 0 6 -2 10 -4 10 -3
0 -8 -4 -11 -10z"/>
<path d="M8231 17448 c-1 -21 3 -26 15 -21 9 3 11 9 6 12 -5 3 -12 13 -15 21
-3 9 -6 4 -6 -12z"/>
<path d="M24840 16749 c0 -5 5 -7 10 -4 6 3 10 8 10 11 0 2 -4 4 -10 4 -5 0
-10 -5 -10 -11z"/>
<path d="M24595 16690 c3 -5 8 -10 11 -10 2 0 4 5 4 10 0 6 -5 10 -11 10 -5 0
-7 -4 -4 -10z"/>
<path d="M8500 16181 c-9 -9 -22 -28 -29 -43 -8 -16 -18 -28 -23 -28 -4 0 -8
-6 -8 -13 0 -7 -16 -37 -36 -67 -20 -30 -50 -82 -66 -115 -33 -64 -34 -88 -9
-260 6 -38 13 -90 17 -115 3 -25 10 -55 15 -68 5 -13 9 -34 9 -47 0 -13 5 -36
11 -52 7 -15 11 -39 10 -53 -1 -14 3 -39 9 -55 7 -17 13 -43 16 -60 6 -48 11
-78 18 -105 4 -14 8 -36 10 -50 1 -14 8 -35 14 -47 7 -12 14 -41 17 -64 3 -22
10 -50 16 -60 5 -11 7 -24 4 -29 -3 -5 -1 -11 4 -14 9 -6 23 -54 26 -91 2 -32
15 -65 41 -103 18 -26 21 -38 13 -43 -9 -5 -9 -13 3 -31 9 -13 21 -50 28 -83
13 -66 34 -111 62 -137 14 -11 17 -23 12 -42 -5 -21 -3 -25 9 -20 19 7 33 -14
18 -29 -17 -17 -14 -50 4 -43 11 4 15 -1 15 -17 1 -29 23 -57 44 -57 10 0 14
-5 11 -10 -4 -6 1 -22 10 -36 12 -19 14 -29 5 -39 -15 -18 3 -29 35 -21 25 6
39 -12 29 -39 -4 -8 -1 -15 6 -15 7 0 9 -8 5 -20 -5 -15 -2 -20 13 -20 11 0
25 -7 32 -15 7 -8 31 -20 54 -26 22 -5 49 -12 58 -15 13 -4 19 3 24 23 4 15
22 57 41 92 39 76 43 101 11 71 -19 -17 -24 -18 -36 -7 -7 8 -15 23 -17 33 -2
10 -4 21 -4 24 -1 3 -5 -1 -10 -9 -14 -21 -85 34 -76 58 18 42 17 50 -12 68
-30 19 -34 53 -7 53 25 0 15 29 -17 45 -31 17 -35 41 -5 39 13 -2 15 3 10 20
-3 11 -12 26 -20 32 -8 6 -14 18 -14 27 0 9 -11 19 -24 23 -17 4 -23 12 -22
30 1 26 16 34 16 9 0 -8 5 -15 10 -15 14 0 12 11 -6 31 -8 9 -17 26 -18 36 -2
10 -10 17 -20 15 -10 -2 -16 4 -16 17 0 15 5 19 18 15 13 -5 14 -4 3 4 -8 6
-11 18 -7 30 5 15 -1 29 -25 51 -26 25 -29 32 -16 37 19 7 17 46 -2 82 -7 12
-9 27 -6 32 3 6 1 10 -6 10 -6 0 -9 8 -6 20 3 10 -2 25 -9 31 -8 7 -12 19 -9
27 3 8 0 31 -6 50 -10 31 -33 124 -43 177 -2 11 -9 32 -15 48 -6 15 -8 27 -5
27 4 0 2 6 -4 13 -6 7 -9 23 -5 35 3 12 1 34 -5 50 -5 15 -15 52 -20 82 -6 30
-16 80 -22 110 -7 30 -14 71 -16 90 -10 95 -27 191 -35 196 -5 2 -6 17 -3 32
3 15 0 41 -7 57 -6 17 -13 48 -14 70 -4 93 -18 200 -29 210 -8 9 -15 7 -26 -4z
m260 -1295 c0 -15 -18 -31 -26 -23 -7 7 7 37 17 37 5 0 9 -6 9 -14z m-10 -46
c0 -5 -5 -10 -11 -10 -5 0 -7 5 -4 10 3 6 8 10 11 10 2 0 4 -4 4 -10z m146
-424 c15 -16 18 -26 6 -26 -4 0 -13 9 -20 20 -14 23 -7 26 14 6z m-196 -22 c0
-8 -4 -12 -10 -9 -5 3 -10 10 -10 16 0 5 5 9 10 9 6 0 10 -7 10 -16z m187 -30
c-3 -3 -12 -4 -19 -1 -8 3 -5 6 6 6 11 1 17 -2 13 -5z m-127 -78 c0 -3 -4 -8
-10 -11 -5 -3 -10 -1 -10 4 0 6 5 11 10 11 6 0 10 -2 10 -4z m80 -75 c0 -6 -4
-13 -10 -16 -5 -3 -10 1 -10 9 0 9 5 16 10 16 6 0 10 -4 10 -9z m114 -15 c-10
-8 -21 -12 -24 -10 -5 6 21 24 34 24 6 0 1 -6 -10 -14z m-84 -126 c0 -5 -4
-10 -10 -10 -5 0 -10 5 -10 10 0 6 5 10 10 10 6 0 10 -4 10 -10z m180 -141
c-7 -11 -14 -18 -17 -15 -8 8 5 36 17 36 7 0 7 -6 0 -21z m-74 2 c-3 -5 -15
-7 -26 -4 -28 7 -25 13 6 13 14 0 23 -4 20 -9z"/>
<path d="M24615 15830 c-3 -5 -1 -10 4 -10 6 0 11 5 11 10 0 6 -2 10 -4 10 -3
0 -8 -4 -11 -10z"/>
<path d="M24605 15610 c-3 -5 -1 -10 4 -10 6 0 11 5 11 10 0 6 -2 10 -4 10 -3
0 -8 -4 -11 -10z"/>
<path d="M13580 14865 c-13 -14 -19 -25 -13 -25 5 0 20 11 33 25 13 14 19 25
13 25 -5 0 -20 -11 -33 -25z"/>
<path d="M22641 14789 c-13 -11 -22 -21 -20 -24 3 -2 18 7 34 20 17 13 26 24
20 24 -5 0 -21 -9 -34 -20z"/>
<path d="M8995 14200 c-3 -6 1 -7 9 -4 18 7 21 14 7 14 -6 0 -13 -4 -16 -10z"/>
<path d="M8993 14155 c-3 -9 -3 -18 -1 -21 3 -3 8 4 11 16 6 23 -1 27 -10 5z"/>
<path d="M9020 14134 c0 -8 5 -12 10 -9 6 3 10 10 10 16 0 5 -4 9 -10 9 -5 0
-10 -7 -10 -16z"/>
<path d="M9073 14083 c9 -9 20 -13 24 -9 4 4 1 11 -7 16 -25 16 -35 11 -17 -7z"/>
<path d="M10241 13557 c-5 -14 -12 -42 -16 -63 -3 -22 -10 -57 -15 -79 -5 -22
-12 -74 -15 -115 -4 -41 -8 -97 -11 -125 -14 -163 -6 -247 24 -238 6 3 12 0
12 -6 0 -6 -4 -11 -10 -11 -18 0 1 -27 27 -39 26 -12 63 -7 63 10 0 5 7 9 15
9 20 0 48 33 52 62 17 104 -1 471 -27 568 -7 27 -16 40 -28 40 -9 0 -27 3 -39
6 -18 5 -25 1 -32 -19z"/>
<path d="M10706 13475 c-9 -13 -16 -30 -16 -38 0 -7 -4 -17 -9 -22 -11 -12
-30 -101 -37 -170 -3 -27 -9 -63 -13 -80 -14 -49 -12 -133 3 -170 18 -42 57
-69 87 -60 15 5 18 9 9 15 -7 4 -9 13 -5 19 5 8 11 9 19 2 9 -8 19 -2 36 21
22 30 24 42 24 168 1 154 -8 273 -23 313 -14 35 -52 37 -75 2z m-26 -485 c0
-5 -2 -10 -4 -10 -3 0 -8 5 -11 10 -3 6 -1 10 4 10 6 0 11 -4 11 -10z"/>
<path d="M11074 13245 c2 -159 7 -229 15 -239 7 -8 10 -19 7 -25 -9 -14 42
-51 70 -51 30 0 82 45 83 72 1 13 3 43 6 68 4 44 -6 124 -25 205 -5 22 -17 73
-26 113 -9 39 -17 72 -18 73 0 0 -27 3 -58 5 l-57 4 3 -225z m141 -235 c3 -5
1 -10 -4 -10 -6 0 -11 5 -11 10 0 6 2 10 4 10 3 0 8 -4 11 -10z m-5 -36 c0 -8
-5 -12 -10 -9 -6 4 -8 11 -5 16 9 14 15 11 15 -7z"/>
<path d="M21150 12694 c-108 -19 -136 -51 -125 -140 3 -30 11 -56 16 -60 5 -3
7 -10 3 -15 -6 -10 -144 -78 -229 -114 -150 -63 -377 -154 -470 -188 -174 -63
-411 -135 -680 -207 -60 -16 -135 -36 -165 -45 -30 -9 -71 -18 -90 -20 -19 -3
-73 -14 -120 -25 -184 -44 -330 -77 -380 -85 -14 -2 -38 -7 -55 -10 -137 -25
-413 -75 -470 -84 -38 -6 -140 -22 -225 -35 -191 -30 -398 -58 -680 -91 -118
-13 -253 -29 -300 -35 -47 -5 -119 -12 -160 -15 -88 -7 -179 -25 -186 -37 -12
-18 19 -37 94 -57 119 -32 321 -41 627 -27 191 8 217 10 335 22 41 5 82 8 90
9 151 9 331 30 513 62 49 8 136 21 195 29 59 7 130 18 157 23 189 37 483 94
495 96 8 1 26 5 40 8 14 3 79 17 145 32 123 27 170 39 240 60 22 7 56 16 75
20 19 4 55 13 78 21 24 8 78 23 120 35 185 48 299 85 667 220 50 18 97 38 106
46 8 7 20 13 25 13 5 0 20 6 34 13 14 7 48 21 75 31 28 11 79 34 115 52 105
52 176 84 187 84 6 0 16 6 22 14 6 7 33 16 60 18 56 6 97 34 129 90 33 56 16
121 -48 191 -74 81 -167 117 -260 101z"/>
<path d="M11928 12262 c-75 -36 -122 -96 -162 -206 -20 -55 -23 -72 -14 -97 7
-21 13 -27 18 -19 6 10 13 9 31 -4 l23 -16 -22 0 c-35 0 -25 -18 17 -31 35
-10 44 -9 95 16 31 15 54 31 51 35 -8 13 43 33 62 25 16 -8 15 -9 -7 -13 -14
-2 -29 -8 -35 -14 -7 -7 2 -9 29 -5 22 4 42 10 45 15 3 5 16 21 27 35 l22 27
136 -60 c74 -32 184 -76 243 -96 60 -20 122 -42 140 -50 17 -8 39 -14 48 -14
9 0 31 -6 48 -14 29 -13 107 -37 267 -82 30 -9 75 -22 100 -29 25 -8 97 -26
160 -41 63 -14 124 -30 135 -34 11 -4 47 -13 80 -20 33 -7 83 -18 110 -26 41
-11 227 -46 310 -58 11 -2 47 -8 80 -14 130 -24 429 -53 600 -58 213 -7 905
20 950 36 17 6 14 8 -15 14 -19 4 -80 18 -135 31 -55 12 -145 28 -200 34 -95
11 -177 23 -380 56 -49 8 -121 19 -160 26 -38 6 -95 15 -125 20 -30 5 -125 18
-210 29 -174 23 -346 50 -465 73 -44 9 -116 21 -160 27 -44 7 -85 16 -90 20
-6 5 -40 14 -75 19 -101 17 -108 18 -322 71 -201 50 -260 65 -308 80 -14 4
-54 15 -90 25 -36 9 -85 23 -110 31 -47 15 -156 48 -300 91 -208 61 -240 75
-272 119 -47 66 -99 80 -170 46z"/>
<path d="M15300 25680 c0 -5 5 -10 11 -10 5 0 7 5 4 10 -3 6 -8 10 -11 10 -2
0 -4 -4 -4 -10z"/>
<path d="M15390 25650 c0 -5 5 -10 10 -10 6 0 10 5 10 10 0 6 -4 10 -10 10 -5
0 -10 -4 -10 -10z"/>
<path d="M15615 25650 c3 -5 10 -10 16 -10 5 0 9 5 9 10 0 6 -7 10 -16 10 -8
0 -12 -4 -9 -10z"/>
<path d="M15470 25640 c-12 -8 -12 -10 2 -15 20 -8 41 2 33 16 -8 11 -16 11
-35 -1z"/>
<path d="M15420 25610 c0 -5 5 -10 11 -10 5 0 7 5 4 10 -3 6 -8 10 -11 10 -2
0 -4 -4 -4 -10z"/>
<path d="M15336 25581 c-4 -5 3 -7 14 -4 23 6 26 13 6 13 -8 0 -17 -4 -20 -9z"/>
<path d="M7975 13130 c10 -11 20 -20 23 -20 3 0 -3 9 -13 20 -10 11 -20 20
-23 20 -3 0 3 -9 13 -20z"/>
<path d="M6480 10436 c0 -2 8 -10 18 -17 15 -13 16 -12 3 4 -13 16 -21 21 -21
13z"/>
<path d="M8110 12556 c0 -16 44 -76 55 -76 25 0 29 23 7 38 -12 8 -22 21 -22
28 0 8 -9 14 -20 14 -11 0 -20 -2 -20 -4z"/>
<path d="M5015 26554 c-10 -8 -15 -14 -10 -14 5 0 3 -6 -3 -12 -10 -10 -15
-10 -23 2 -8 13 -9 12 -7 -2 2 -9 -5 -23 -15 -30 -10 -8 -24 -41 -32 -78 -8
-36 -21 -78 -28 -95 -8 -16 -29 -68 -46 -115 -18 -47 -42 -103 -53 -125 -11
-22 -36 -71 -56 -110 -51 -102 -155 -275 -164 -275 -4 0 -8 -5 -8 -11 0 -37
-257 -321 -332 -367 -16 -9 -28 -20 -28 -23 0 -4 -35 -30 -77 -58 -43 -28 -85
-57 -93 -64 -8 -8 -49 -29 -90 -47 -41 -19 -87 -42 -102 -52 -14 -10 -33 -18
-41 -18 -8 0 -20 -7 -27 -15 -7 -8 -19 -15 -27 -15 -25 0 -90 -38 -106 -64
-13 -19 -16 -40 -12 -93 8 -97 16 -104 156 -113 63 -4 141 -16 174 -25 187
-54 341 -191 468 -417 54 -94 127 -240 127 -252 0 -3 9 -25 20 -49 52 -112
124 -350 136 -452 2 -22 7 -51 10 -65 3 -14 8 -41 10 -60 10 -88 25 -171 36
-206 10 -31 18 -38 38 -39 33 0 56 -15 40 -25 -8 -5 -5 -9 8 -12 16 -5 19 -2
14 11 -5 14 -3 14 11 2 24 -19 63 -6 100 32 37 37 58 77 88 167 33 100 122
301 178 400 10 19 26 51 35 70 39 83 105 193 120 202 9 5 16 18 16 28 0 10 4
21 8 24 5 3 39 49 76 103 158 231 200 284 311 393 96 95 147 140 159 140 5 0
29 15 55 33 25 18 71 43 101 55 30 13 71 32 91 42 26 14 54 18 103 17 61 -2
68 0 89 25 12 15 31 28 42 30 12 2 19 10 17 21 -2 9 2 17 8 17 5 0 10 6 10 14
0 9 -7 12 -20 9 -14 -4 -20 0 -20 12 0 11 5 15 15 11 9 -3 15 0 15 10 0 11 -6
14 -16 10 -18 -7 -78 50 -60 58 22 9 -66 6 -134 -5 -66 -10 -70 -9 -132 21
-67 33 -103 53 -185 106 -29 19 -57 34 -63 34 -5 0 -10 3 -10 8 0 4 -17 18
-38 32 -55 36 -182 139 -222 179 -81 82 -221 267 -235 312 -4 13 -15 35 -25
49 -9 14 -32 63 -50 110 -18 47 -37 90 -42 96 -4 6 -12 31 -18 55 -5 24 -16
71 -25 104 -21 82 -45 205 -45 235 0 14 -11 45 -24 70 -17 33 -29 45 -47 47
-13 0 -27 2 -31 3 -5 1 -11 3 -15 4 -5 1 -13 4 -18 8 -6 3 -19 0 -30 -8z"/>
<path d="M7325 25113 c-11 -1 -135 -4 -275 -5 -220 -3 -260 -5 -282 -20 -56
-37 -60 -45 -54 -122 5 -62 10 -74 36 -98 41 -37 89 -48 242 -54 368 -13 424
-8 477 45 12 12 29 21 40 21 10 0 27 12 37 28 10 15 24 33 31 40 7 7 13 20 13
28 0 8 7 14 15 14 17 0 20 27 5 50 -8 12 -10 12 -10 1 0 -11 -3 -11 -21 0 -11
8 -20 17 -20 22 1 4 -8 16 -19 27 -16 16 -36 20 -107 23 -49 1 -97 2 -108 0z"/>
<path d="M6430 25076 c0 -2 7 -7 16 -10 8 -3 12 -2 9 4 -6 10 -25 14 -25 6z"/>
<path d="M2870 25009 c-47 -4 -110 -12 -140 -18 -30 -6 -76 -13 -102 -16 -27
-4 -48 -10 -48 -14 0 -4 -7 -16 -16 -27 -8 -10 -13 -13 -9 -6 3 6 2 12 -4 12
-13 0 -35 -39 -27 -48 3 -3 6 0 6 6 0 7 5 12 11 12 8 0 10 -14 6 -40 -3 -22
-1 -40 4 -40 5 0 9 -9 9 -20 0 -11 -4 -20 -10 -20 -5 0 -10 -5 -10 -11 0 -6 6
-9 13 -6 6 2 20 -3 31 -12 14 -12 43 -16 135 -18 64 -1 150 -2 191 -3 155 -4
178 -1 198 20 15 16 34 21 82 23 44 2 66 8 74 19 7 9 20 16 30 15 10 -1 25 8
33 21 14 20 14 22 -1 22 -19 0 -21 31 -4 48 9 9 9 12 0 12 -6 0 -14 16 -18 35
-3 19 -13 40 -22 47 -18 15 -278 20 -412 7z"/>
<path d="M2511 24864 c0 -11 3 -14 6 -6 3 7 2 16 -1 19 -3 4 -6 -2 -5 -13z"/>
<path d="M4949 22703 c-1 -4 -1 -11 0 -15 0 -4 -7 -4 -16 -1 -13 5 -15 2 -9
-12 4 -11 0 -25 -10 -36 -9 -10 -18 -35 -21 -56 -2 -21 -9 -65 -14 -98 -15
-92 -30 -187 -34 -220 -3 -16 -7 -46 -10 -65 -23 -162 -24 -364 -1 -408 9 -18
23 -32 31 -32 8 0 15 -5 15 -11 0 -6 7 -8 16 -5 12 4 14 1 9 -14 -6 -17 -2
-20 28 -20 23 0 37 6 41 16 4 10 14 14 26 11 13 -3 20 0 20 9 0 8 5 13 12 12
7 -2 20 21 30 51 9 29 22 59 28 66 6 8 13 53 16 102 2 48 7 107 10 129 5 40
12 251 15 432 1 74 -1 85 -21 104 -17 16 -19 22 -8 29 12 8 4 13 -15 10 -7 -1
-89 16 -119 25 -10 3 -19 2 -19 -3z"/>
<path d="M29074 10156 c-21 -18 -27 -35 -35 -101 -16 -139 -14 -871 2 -891 5
-7 9 -16 8 -20 -3 -19 1 -35 9 -30 11 7 45 -21 38 -32 -3 -6 1 -13 10 -16 24
-9 26 -8 19 14 -9 27 9 25 23 -2 7 -15 11 -17 11 -8 1 8 23 25 50 38 47 22 50
26 56 70 3 26 4 81 1 122 -3 41 -7 154 -10 250 -6 177 -17 398 -22 435 -16
130 -40 190 -69 179 -8 -4 -15 -2 -15 2 0 18 -52 11 -76 -10z"/>
<path d="M29209 9081 l-24 -20 23 6 c23 5 38 20 29 29 -2 2 -15 -4 -28 -15z"/>
<path d="M29090 8683 c-25 -18 -38 -63 -45 -163 -4 -47 -10 -101 -15 -120 -4
-19 -11 -57 -15 -85 -8 -64 -73 -309 -87 -330 -4 -6 -16 -40 -28 -75 -22 -65
-54 -142 -71 -170 -5 -8 -18 -33 -29 -56 -35 -72 -145 -229 -211 -299 -116
-124 -117 -125 -259 -238 -164 -132 -202 -169 -227 -224 -12 -29 -29 -53 -36
-53 -8 0 -21 -8 -29 -17 -18 -21 -29 -83 -15 -83 5 0 7 -9 4 -20 -3 -11 -1
-18 3 -15 5 3 11 1 15 -5 3 -5 1 -10 -6 -10 -12 0 -3 -15 9 -15 30 -1 105 -31
112 -45 11 -20 112 -80 135 -80 8 0 15 -4 15 -9 0 -5 10 -13 22 -17 48 -15
165 -101 275 -202 89 -82 251 -306 318 -442 15 -30 35 -66 45 -80 9 -14 20
-38 24 -55 4 -16 16 -48 27 -72 10 -23 19 -46 19 -52 0 -9 21 -63 40 -101 4
-9 11 -36 14 -60 4 -25 11 -54 16 -65 4 -11 18 -51 31 -90 36 -113 66 -169
100 -184 22 -9 28 -18 24 -30 -5 -13 -4 -14 6 -3 20 19 86 15 93 -5 6 -15 9
-14 29 5 19 19 20 24 7 32 -12 8 -10 10 8 10 14 0 20 4 17 10 -4 6 -2 16 3 23
6 7 10 23 10 37 -1 35 12 151 18 161 2 4 7 28 9 52 5 50 50 231 65 262 5 11
26 68 45 128 20 59 47 126 61 150 13 23 24 52 24 65 0 12 5 22 10 22 6 0 10 4
10 9 0 13 66 150 94 196 13 22 36 63 50 90 24 47 83 144 96 155 3 3 18 25 34
49 64 98 195 210 326 276 47 24 48 25 43 63 -5 41 11 87 28 77 5 -4 9 3 9 15
0 14 -5 20 -17 18 -10 -2 -18 3 -19 10 -1 6 -2 18 -3 25 -1 6 -20 23 -44 36
-49 28 -258 183 -277 206 -7 8 -16 15 -20 15 -12 0 -179 166 -227 225 -91 112
-161 212 -223 315 -37 61 -88 160 -83 160 3 0 -1 8 -9 18 -17 20 -42 73 -64
133 -8 23 -18 47 -23 53 -9 12 -65 207 -76 266 -3 19 -7 42 -9 50 -1 8 -6 39
-11 68 -10 68 -48 104 -107 100 -21 -1 -48 -8 -58 -15z"/>
<path d="M30947 7034 c-1 -1 -47 -5 -102 -8 -177 -12 -202 -22 -239 -93 -22
-44 -5 -83 47 -108 38 -19 61 -20 391 -18 193 1 355 2 359 3 4 0 21 15 38 32
21 24 29 42 29 70 0 29 4 38 18 38 12 0 10 4 -8 13 -18 9 -24 20 -22 37 1 13
0 21 -4 17 -4 -3 -20 1 -36 9 -25 13 -67 15 -249 13 -121 -2 -221 -4 -222 -5z"/>
<path d="M30346 6961 c-4 -7 -5 -15 -2 -18 9 -9 19 4 14 18 -4 11 -6 11 -12 0z"/>
<path d="M27205 6879 c-170 -6 -207 -17 -223 -62 -19 -52 -15 -89 13 -120 14
-15 31 -28 38 -29 7 0 23 -3 37 -5 40 -5 390 -13 565 -13 168 0 229 6 219 21
-3 5 4 9 14 9 11 0 25 7 32 15 10 13 9 15 -9 15 -11 0 -21 3 -21 8 1 15 29 44
38 38 6 -4 9 7 8 26 -5 51 -6 54 -16 38 -7 -12 -12 -12 -22 -2 -10 10 -10 15
2 22 8 5 12 10 10 12 -28 18 -56 24 -115 27 -160 5 -439 6 -570 0z"/>
<path d="M31467 6853 c-4 -3 -7 -11 -7 -17 0 -6 5 -5 12 2 6 6 9 14 7 17 -3 3
-9 2 -12 -2z"/>
<path d="M29318 4833 c-14 -15 -28 -41 -31 -58 -4 -16 -11 -52 -17 -80 -17
-84 -19 -96 -30 -220 -6 -66 -12 -227 -13 -357 -2 -192 1 -239 12 -250 10 -10
12 -10 7 0 -11 19 15 14 38 -7 23 -20 122 -36 131 -21 4 6 -2 7 -12 3 -10 -4
-1 9 20 29 24 23 37 45 38 64 1 16 3 49 5 74 9 159 7 527 -3 545 -11 21 -18
59 -29 171 -8 72 -37 127 -70 132 -11 2 -30 -9 -46 -25z"/>
</g>
</svg>
